<svg width="790" height="825" viewBox="0 0 790 825" fill="none" xmlns="http://www.w3.org/2000/svg">
<g opacity="0.15">
<path d="M598.353 331.942V824.743H790V325.101L774.258 325.669L745.497 326.687V225.868H642.832V330.356L598.353 331.942Z" fill="black"/>
<path d="M673.637 287.462H714.703L707.859 0C699.01 3.17956 689.33 3.17956 680.481 0L673.637 287.462Z" fill="black"/>
<path d="M670.103 498.071H717.446V450.727H670.103V498.071Z" fill="black"/>
<path d="M670.103 573.821H717.446V526.477H670.103V573.821Z" fill="black"/>
<path d="M670.103 649.571H717.446V602.227H670.103V649.571Z" fill="black"/>
<path d="M670.103 725.321H717.446V677.977H670.103V725.321Z" fill="black"/>
</g>
<path d="M0 568.169V809H93.1802V564.824L71.5497 565.6V516.323H55.8604L53.2752 407.185C59.6061 403.038 64.0619 393.19 64.0619 381.691C64.0689 378.39 63.6865 375.1 62.9229 371.889C65.919 368.63 67.7553 364.465 68.1441 360.045C68.533 355.625 67.4524 351.201 65.0716 347.464C67.0625 349.213 69.3792 350.547 71.8871 351.388C74.395 352.23 77.0442 352.562 79.6809 352.366C82.3177 352.17 84.8894 351.45 87.2469 350.247C89.6044 349.043 91.7007 347.382 93.4141 345.358C95.1274 343.334 96.4237 340.988 97.2277 338.456C98.0317 335.925 98.3274 333.258 98.0977 330.61C97.8679 327.963 97.1173 325.388 95.8893 323.034C94.6614 320.681 92.9805 318.596 90.9444 316.901C94.368 315.631 97.3799 313.442 99.653 310.573C101.926 307.703 103.373 304.263 103.838 300.625C104.302 296.987 103.765 293.29 102.287 289.937C100.808 286.584 98.4429 283.702 95.449 281.605C92.4551 279.508 88.9467 278.275 85.3048 278.041C81.663 277.807 78.027 278.58 74.7918 280.277C71.5566 281.975 68.846 284.53 66.9543 287.667C65.0627 290.803 64.0623 294.401 64.0619 298.069C64.0619 298.363 64.0712 298.655 64.0834 298.945C61.3418 298.103 58.4521 297.864 55.6105 298.245C52.7689 298.625 50.042 299.615 47.6148 301.148C45.1877 302.681 43.1172 304.722 41.544 307.13C39.9708 309.539 38.9317 312.26 38.4973 315.108C36.0072 313.618 33.2245 312.692 30.3424 312.392C27.4602 312.093 24.5478 312.427 21.8072 313.372C19.0665 314.317 16.5634 315.851 14.4715 317.866C12.3796 319.881 10.749 322.329 9.69304 325.041C8.6371 327.753 8.18106 330.664 8.35653 333.571C8.532 336.478 9.33481 339.311 10.7092 341.875C12.0836 344.439 13.9967 346.671 16.3157 348.418C18.6346 350.164 21.3038 351.382 24.1381 351.987C24.1342 352.132 24.1268 352.277 24.1268 352.424C25.9813 358.049 28.3418 363.492 31.179 368.686C29.7919 372.88 29.0961 377.272 29.1193 381.691C29.1193 393.19 33.5741 403.038 39.9051 407.185L37.3199 516.323H21.6315V567.392L0 568.169ZM58.186 338.206L58.2375 338.208C58.526 338.208 58.8117 338.198 59.0965 338.186C59.2763 338.779 59.4821 339.36 59.7137 339.928C59.2376 339.325 58.7275 338.751 58.186 338.206Z" fill="black" fill-opacity="0.11"/>
<path d="M398 549.699V825H504.62V545.876L479.869 546.763V490.433H461.917L458.959 365.674C466.203 360.935 471.302 349.677 471.302 336.532C471.31 332.759 470.872 328.997 469.998 325.327C473.427 321.602 475.528 316.84 475.973 311.788C476.418 306.735 475.181 301.678 472.457 297.406C474.735 299.405 477.386 300.93 480.255 301.892C483.125 302.854 486.156 303.234 489.173 303.01C492.19 302.786 495.133 301.962 497.831 300.587C500.528 299.212 502.927 297.312 504.887 294.998C506.848 292.685 508.331 290.003 509.251 287.109C510.171 284.215 510.509 281.167 510.246 278.14C509.983 275.114 509.125 272.17 507.72 269.48C506.314 266.79 504.391 264.406 502.061 262.469C505.979 261.017 509.425 258.515 512.026 255.235C514.627 251.955 516.283 248.022 516.814 243.863C517.346 239.704 516.732 235.479 515.039 231.646C513.347 227.812 510.641 224.518 507.216 222.121C503.79 219.723 499.775 218.314 495.608 218.047C491.441 217.779 487.281 218.664 483.579 220.603C479.877 222.543 476.776 225.465 474.611 229.05C472.447 232.636 471.302 236.749 471.302 240.941C471.302 241.278 471.312 241.611 471.326 241.943C468.189 240.981 464.883 240.708 461.631 241.142C458.38 241.577 455.26 242.709 452.482 244.461C449.705 246.214 447.336 248.546 445.536 251.3C443.736 254.053 442.547 257.163 442.05 260.419C439.201 258.716 436.016 257.657 432.719 257.315C429.421 256.972 426.088 257.354 422.952 258.435C419.816 259.515 416.952 261.268 414.559 263.571C412.165 265.875 410.299 268.674 409.091 271.774C407.883 274.874 407.361 278.201 407.562 281.524C407.763 284.847 408.681 288.087 410.254 291.017C411.826 293.948 414.015 296.5 416.669 298.496C419.322 300.492 422.376 301.884 425.62 302.576C425.615 302.743 425.607 302.908 425.607 303.076C427.729 309.506 430.43 315.728 433.676 321.666C432.089 326.459 431.293 331.481 431.319 336.532C431.319 349.677 436.417 360.935 443.661 365.674L440.703 490.433H422.751V548.811L398 549.699ZM464.578 286.824L464.637 286.825C464.967 286.825 465.294 286.814 465.62 286.8C465.826 287.478 466.061 288.142 466.326 288.792C465.782 288.103 465.198 287.446 464.578 286.824Z" fill="black" fill-opacity="0.11"/>
</svg>
