<svg width="1455" height="825" viewBox="0 0 1455 825" fill="none" xmlns="http://www.w3.org/2000/svg">
<circle cx="1148" cy="610" r="195" fill="#FFC700" fill-opacity="0.37"/>
<g opacity="0.15">
<path d="M1263.35 331.942V824.743H1455V325.101L1439.26 325.669L1410.5 326.687V225.868H1307.83V330.356L1263.35 331.942Z" fill="black"/>
<path d="M1338.64 287.462H1379.7L1372.86 0C1364.01 3.17956 1354.33 3.17956 1345.48 0L1338.64 287.462Z" fill="black"/>
<path d="M1335.1 498.071H1382.45V450.727H1335.1V498.071Z" fill="black"/>
<path d="M1335.1 573.821H1382.45V526.477H1335.1V573.821Z" fill="black"/>
<path d="M1335.1 649.571H1382.45V602.227H1335.1V649.571Z" fill="black"/>
<path d="M1335.1 725.321H1382.45V677.977H1335.1V725.321Z" fill="black"/>
</g>
<path d="M215.305 807.595L190.307 767.924L215.316 811.916L215.33 816.437C217.113 816.416 218.879 816.347 220.626 816.232L218.587 758.164L218.614 757.715L218.568 757.63L218.374 752.143L244.511 708.664L218.347 748.034L218.269 749.196L216.728 705.324L239.198 660.339L216.553 697.615L215.499 606.68L215.495 606.377L215.491 606.675L214.978 678.371L193.507 649.684L214.997 684.546L215.097 723.815L195.175 685.889L215.108 729.588L215.163 751.423L186.224 698.617L215.186 759.04L215.305 807.595Z" fill="white"/>
<path d="M20.999 814.791L2.94827 786.145L21.0074 817.911L21.0171 821.175C22.3048 821.16 23.5796 821.111 24.8414 821.027L23.3691 779.097L23.3885 778.773L23.3553 778.711L23.2151 774.749L42.0888 743.353L23.1956 771.782L23.1391 772.621L22.0269 740.941L38.2523 708.458L21.9001 735.375L21.1395 669.711L21.136 669.492L21.1334 669.707L20.763 721.479L5.25889 700.764L20.7768 725.938L20.8488 754.293L6.46315 726.907L20.8567 758.462L20.8965 774.229L0 736.098L20.9129 779.73L20.999 814.791Z" fill="#E2E2E2"/>
<path d="M1343.33 468.898C1347.39 468.893 1351.32 470.357 1354.39 473.019C1356.81 472.357 1359.35 472.245 1361.83 472.692C1363.88 469.72 1366.82 467.481 1370.23 466.302C1373.64 465.122 1377.34 465.065 1380.79 466.137C1384.23 467.21 1387.25 469.356 1389.38 472.263C1391.52 475.17 1392.68 478.684 1392.68 482.293H1326.78C1327.59 478.503 1329.67 475.105 1332.68 472.667C1335.69 470.229 1339.45 468.899 1343.33 468.898Z" fill="black" fill-opacity="0.11"/>
<path d="M922.452 329.902C926.515 329.898 930.442 331.361 933.511 334.023C935.936 333.361 938.478 333.249 940.952 333.696C943 330.724 945.944 328.485 949.356 327.306C952.767 326.127 956.465 326.069 959.911 327.142C963.357 328.214 966.37 330.36 968.51 333.267C970.649 336.174 971.803 339.688 971.803 343.298H905.902C906.71 339.507 908.794 336.109 911.807 333.671C914.819 331.233 918.576 329.903 922.452 329.902Z" fill="black" fill-opacity="0.11"/>
<path d="M1289.87 377.53C1293.93 377.526 1297.86 378.989 1300.93 381.651C1303.35 380.989 1305.89 380.877 1308.37 381.324C1310.42 378.352 1313.36 376.113 1316.77 374.934C1320.18 373.755 1323.88 373.697 1327.33 374.769C1330.77 375.842 1333.79 377.988 1335.92 380.895C1338.06 383.802 1339.22 387.316 1339.22 390.925H1273.32C1274.13 387.135 1276.21 383.737 1279.22 381.299C1282.23 378.861 1285.99 377.531 1289.87 377.53Z" fill="black" fill-opacity="0.11"/>
<path d="M405.047 94.8215C409.274 94.8166 413.36 96.3392 416.554 99.109C419.077 98.4199 421.722 98.3037 424.295 98.7688C426.426 95.6767 429.49 93.347 433.039 92.12C436.588 90.893 440.436 90.8331 444.022 91.949C447.607 93.0649 450.742 95.2982 452.968 98.3224C455.194 101.347 456.394 105.004 456.394 108.759H387.827C388.668 104.815 390.836 101.28 393.971 98.743C397.105 96.2063 401.014 94.822 405.047 94.8215Z" fill="white" fill-opacity="0.42"/>
<path d="M453.646 321.297C457.874 321.292 461.96 322.815 465.153 325.584C467.676 324.895 470.322 324.779 472.895 325.244C475.026 322.152 478.09 319.822 481.639 318.595C485.188 317.368 489.036 317.308 492.622 318.424C496.207 319.54 499.342 321.773 501.568 324.798C503.794 327.822 504.994 331.479 504.994 335.234H436.427C437.268 331.291 439.436 327.755 442.57 325.218C445.705 322.682 449.614 321.297 453.646 321.297Z" fill="white" fill-opacity="0.42"/>
<path d="M1298.54 823.93H144.33V815.93H1298.54V823.93Z" fill="#3F3D56"/>
<path d="M1297.54 806.558L1272.54 766.888L1297.55 810.88L1297.56 815.4C1299.35 815.379 1301.11 815.311 1302.86 815.195L1300.82 757.128L1300.85 756.679L1300.8 756.593L1300.61 751.106L1326.74 707.627L1300.58 746.997L1300.5 748.159L1298.96 704.287L1321.43 659.303L1298.79 696.578L1297.73 605.643L1297.73 605.341L1297.72 605.638L1297.21 677.334L1275.74 648.648L1297.23 683.51L1297.33 722.778L1277.41 684.852L1297.34 728.551L1297.4 750.386L1268.46 697.58L1297.42 758.004L1297.54 806.558Z" fill="white"/>
<path d="M1392.79 811.418L1367.8 771.748L1392.81 815.74L1392.82 820.26C1394.6 820.239 1396.37 820.171 1398.11 820.055L1396.08 761.988L1396.1 761.539L1396.06 761.453L1395.86 755.966L1422 712.487L1395.84 751.857L1395.76 753.019L1394.22 709.147L1416.69 664.163L1394.04 701.438L1392.99 610.503L1392.98 610.201L1392.98 610.498L1392.47 682.194L1371 653.508L1392.49 688.37L1392.59 727.638L1372.66 689.712L1392.6 733.411L1392.65 755.246L1363.71 702.44L1392.67 762.864L1392.79 811.418Z" fill="white"/>
<path d="M664.846 510.085V702.893H739.591V507.407L722.24 508.028V468.577H709.655L707.581 381.202C712.659 377.882 716.234 369.998 716.234 360.792C716.239 358.149 715.932 355.515 715.32 352.944C717.723 350.335 719.196 347.001 719.508 343.462C719.82 339.924 718.953 336.381 717.043 333.39C718.64 334.79 720.499 335.858 722.51 336.531C724.522 337.205 726.647 337.471 728.762 337.314C730.877 337.157 732.94 336.581 734.831 335.617C736.722 334.654 738.404 333.324 739.778 331.704C741.153 330.083 742.192 328.205 742.837 326.178C743.482 324.152 743.72 322.016 743.535 319.897C743.351 317.777 742.749 315.716 741.764 313.832C740.779 311.947 739.431 310.278 737.797 308.921C740.543 307.904 742.96 306.152 744.783 303.855C746.606 301.558 747.767 298.803 748.14 295.891C748.512 292.978 748.082 290.019 746.895 287.334C745.709 284.649 743.812 282.342 741.411 280.663C739.009 278.984 736.195 277.997 733.273 277.81C730.352 277.623 727.436 278.242 724.841 279.601C722.245 280.959 720.071 283.005 718.554 285.516C717.036 288.028 716.234 290.908 716.234 293.844C716.234 294.08 716.241 294.313 716.251 294.546C714.052 293.872 711.734 293.681 709.454 293.985C707.175 294.289 704.987 295.082 703.041 296.31C701.094 297.537 699.433 299.17 698.171 301.099C696.909 303.027 696.075 305.205 695.727 307.485C693.73 306.293 691.497 305.551 689.186 305.312C686.874 305.072 684.537 305.339 682.339 306.096C680.141 306.853 678.133 308.08 676.455 309.693C674.777 311.307 673.469 313.267 672.622 315.438C671.775 317.61 671.409 319.94 671.55 322.267C671.69 324.594 672.334 326.863 673.437 328.915C674.539 330.968 676.074 332.755 677.934 334.153C679.794 335.551 681.935 336.526 684.209 337.011C684.206 337.127 684.2 337.243 684.2 337.36C685.687 341.864 687.581 346.222 689.857 350.38C688.744 353.737 688.186 357.254 688.204 360.792C688.204 369.998 691.778 377.882 696.856 381.202L694.783 468.577H682.198V509.463L664.846 510.085ZM711.52 325.978L711.562 325.979C711.793 325.979 712.022 325.972 712.251 325.962C712.395 326.437 712.56 326.902 712.746 327.357C712.364 326.874 711.955 326.414 711.52 325.978Z" fill="black" fill-opacity="0.11"/>
<path d="M1098.56 451.704V644.512H1173.3V449.026L1155.95 449.648V410.196H1143.36L1141.29 322.821C1146.37 319.501 1149.94 311.617 1149.94 302.411C1149.95 299.768 1149.64 297.134 1149.03 294.563C1151.43 291.954 1152.91 288.62 1153.22 285.081C1153.53 281.543 1152.66 278 1150.75 275.009C1152.35 276.409 1154.21 277.477 1156.22 278.151C1158.23 278.824 1160.36 279.09 1162.47 278.933C1164.59 278.777 1166.65 278.2 1168.54 277.237C1170.43 276.273 1172.11 274.943 1173.49 273.323C1174.86 271.702 1175.9 269.824 1176.55 267.797C1177.19 265.771 1177.43 263.636 1177.24 261.516C1177.06 259.397 1176.46 257.335 1175.47 255.451C1174.49 253.567 1173.14 251.897 1171.51 250.54C1174.25 249.524 1176.67 247.771 1178.49 245.474C1180.32 243.177 1181.48 240.422 1181.85 237.51C1182.22 234.597 1181.79 231.638 1180.6 228.953C1179.42 226.269 1177.52 223.961 1175.12 222.282C1172.72 220.603 1169.9 219.616 1166.98 219.429C1164.06 219.242 1161.15 219.861 1158.55 221.22C1155.95 222.578 1153.78 224.624 1152.26 227.136C1150.75 229.647 1149.94 232.527 1149.94 235.464C1149.94 235.699 1149.95 235.932 1149.96 236.165C1147.76 235.491 1145.44 235.3 1143.16 235.604C1140.88 235.908 1138.7 236.701 1136.75 237.929C1134.8 239.156 1133.14 240.79 1131.88 242.718C1130.62 244.646 1129.78 246.824 1129.44 249.105C1127.44 247.912 1125.21 247.171 1122.89 246.931C1120.58 246.691 1118.25 246.958 1116.05 247.715C1113.85 248.472 1111.84 249.699 1110.16 251.313C1108.49 252.926 1107.18 254.886 1106.33 257.057C1105.48 259.229 1105.12 261.559 1105.26 263.886C1105.4 266.213 1106.04 268.482 1107.15 270.535C1108.25 272.587 1109.78 274.374 1111.64 275.772C1113.5 277.17 1115.64 278.145 1117.92 278.63C1117.92 278.747 1117.91 278.862 1117.91 278.98C1119.4 283.483 1121.29 287.841 1123.57 291.999C1122.45 295.356 1121.9 298.873 1121.91 302.411C1121.91 311.617 1125.49 319.501 1130.57 322.821L1128.49 410.196H1115.91V451.082L1098.56 451.704ZM1145.23 267.597L1145.27 267.598C1145.5 267.598 1145.73 267.591 1145.96 267.581C1146.1 268.056 1146.27 268.521 1146.46 268.976C1146.07 268.493 1145.66 268.033 1145.23 267.597Z" fill="black" fill-opacity="0.11"/>
<path d="M529.449 578.49V816.395H621.969V575.187L614.369 575.461L600.485 575.953V527.281H550.922V577.724L529.449 578.49Z" fill="#2E5773"/>
<path d="M554.297 350.765C554.294 350.909 554.286 351.052 554.286 351.197C554.283 353.848 554.814 356.472 555.847 358.914C556.88 361.356 558.393 363.565 560.297 365.41C560.595 366.044 560.925 366.662 561.288 367.262C559.91 371.404 559.219 375.743 559.242 380.108C559.242 395.163 567.009 407.368 576.589 407.368C586.17 407.368 593.936 395.163 593.936 380.108C593.943 376.847 593.564 373.596 592.806 370.425C595.78 367.206 597.604 363.091 597.99 358.725C598.376 354.359 597.303 349.989 594.939 346.298C596.916 348.025 599.216 349.342 601.706 350.173C604.196 351.004 606.826 351.333 609.444 351.139C612.062 350.945 614.615 350.234 616.956 349.045C619.296 347.857 621.378 346.215 623.079 344.216C624.78 342.217 626.067 339.899 626.865 337.399C627.663 334.898 627.957 332.264 627.729 329.649C627.501 327.034 626.756 324.49 625.537 322.165C624.318 319.84 622.649 317.781 620.627 316.106C624.027 314.852 627.017 312.69 629.274 309.855C631.531 307.021 632.968 303.622 633.429 300.028C633.89 296.434 633.357 292.783 631.889 289.47C630.42 286.158 628.072 283.311 625.1 281.239C622.127 279.168 618.644 277.95 615.028 277.719C611.412 277.488 607.802 278.252 604.59 279.928C601.378 281.605 598.686 284.129 596.808 287.228C594.93 290.326 593.937 293.88 593.936 297.504C593.936 297.794 593.946 298.082 593.958 298.369C591.236 297.538 588.367 297.301 585.545 297.677C582.724 298.052 580.017 299.031 577.607 300.545C575.197 302.06 573.141 304.075 571.579 306.454C570.017 308.834 568.985 311.521 568.554 314.335C566.082 312.864 563.319 311.948 560.457 311.652C557.596 311.356 554.704 311.686 551.983 312.62C549.262 313.554 546.776 315.068 544.699 317.059C542.622 319.05 541.003 321.468 539.955 324.147C538.906 326.826 538.453 329.702 538.628 332.573C538.802 335.445 539.599 338.244 540.964 340.777C542.328 343.309 544.228 345.515 546.53 347.239C548.833 348.964 551.483 350.167 554.297 350.765ZM588.154 337.154C588.44 337.154 588.724 337.144 589.007 337.132C589.185 337.718 589.389 338.292 589.619 338.853C589.147 338.258 588.64 337.69 588.103 337.152L588.154 337.154Z" fill="#5FA0CB" fill-opacity="0.22"/>
<path d="M565.793 557.016H585.618L582.314 418.241C578.042 419.776 573.369 419.776 569.098 418.241L565.793 557.016Z" fill="#2E5773"/>
<path d="M564.087 658.69H586.943V635.834H564.087V658.69Z" fill="white"/>
<path d="M564.087 695.259H586.943V672.403H564.087V695.259Z" fill="white"/>
<path d="M564.087 731.828H586.943V708.973H564.087V731.828Z" fill="white"/>
<path d="M564.087 768.397H586.943V745.542H564.087V768.397Z" fill="white"/>
<path d="M585.445 814.787H755.72V650.226H585.445V814.787Z" fill="#D36E35"/>
<g filter="url(#filter0_i_20_723)">
<path d="M622.015 814.787H726.008V803.36H622.015V814.787Z" fill="#DEDEDE"/>
</g>
<g filter="url(#filter1_i_20_723)">
<path d="M622.015 805.645H726.008V794.217H622.015V805.645Z" fill="#DEDEDE"/>
</g>
<g filter="url(#filter2_i_20_723)">
<path d="M622.015 796.503H726.008V785.075H622.015V796.503Z" fill="#DEDEDE"/>
</g>
<g filter="url(#filter3_i_20_723)">
<path d="M622.015 787.36H726.008V775.933H622.015V787.36Z" fill="#DEDEDE"/>
</g>
<g filter="url(#filter4_i_20_723)">
<path d="M622.015 778.218H726.008V766.791H622.015V778.218Z" fill="#DEDEDE"/>
</g>
<g filter="url(#filter5_i_20_723)">
<path d="M622.015 769.076H726.008V757.648H622.015V769.076Z" fill="#DEDEDE"/>
</g>
<g filter="url(#filter6_i_20_723)">
<path d="M622.015 759.934H726.008V748.506H622.015V759.934Z" fill="#DEDEDE"/>
</g>
<g filter="url(#filter7_i_20_723)">
<path d="M622.015 750.792H726.008V739.364H622.015V750.792Z" fill="#DEDEDE"/>
</g>
<g filter="url(#filter8_i_20_723)">
<path d="M622.015 741.649H726.008V730.221H622.015V741.649Z" fill="#DEDEDE"/>
</g>
<g filter="url(#filter9_i_20_723)">
<path d="M622.015 732.507H726.008V721.079H622.015V732.507Z" fill="#DEDEDE"/>
</g>
<g filter="url(#filter10_i_20_723)">
<path d="M622.015 723.365H726.008V711.937H622.015V723.365Z" fill="#DEDEDE"/>
</g>
<g filter="url(#filter11_i_20_723)">
<path d="M622.015 714.222H726.008V702.795H622.015V714.222Z" fill="#DEDEDE"/>
</g>
<g filter="url(#filter12_i_20_723)">
<path d="M622.015 705.08H726.008V693.652H622.015V705.08Z" fill="#DEDEDE"/>
</g>
<g filter="url(#filter13_i_20_723)">
<path d="M622.015 695.938H726.008V684.51H622.015V695.938Z" fill="#DEDEDE"/>
</g>
<g filter="url(#filter14_i_20_723)">
<path d="M622.015 686.796H726.008V675.368H622.015V686.796Z" fill="#DEDEDE"/>
</g>
<g filter="url(#filter15_d_20_723)">
<path d="M714.58 814.787H961.422V474.237L703.724 513.664L714.58 814.787Z" fill="#103955"/>
</g>
<g filter="url(#filter16_d_20_723)">
<path d="M1186.92 814.787H961.422V474.237L1196.84 513.664L1186.92 814.787Z" fill="#103955"/>
</g>
<path d="M1180.84 814.787H961.422V486.808L1180.84 529.091V814.787Z" fill="#2E5773"/>
<g filter="url(#filter17_i_20_723)">
<path d="M1127.13 814.787V543.947H1115.7V814.787H1127.13Z" fill="#8294A0"/>
</g>
<g filter="url(#filter18_i_20_723)">
<path d="M1136.27 814.787V543.947H1124.84V814.787H1136.27Z" fill="#8294A0"/>
</g>
<g filter="url(#filter19_i_20_723)">
<path d="M1145.41 814.787V543.947H1133.98V814.787H1145.41Z" fill="#8294A0"/>
</g>
<g filter="url(#filter20_i_20_723)">
<path d="M1154.55 814.787V543.947H1143.12V814.787H1154.55Z" fill="#8294A0"/>
</g>
<g filter="url(#filter21_i_20_723)">
<path d="M1117.98 814.787V543.947H1106.56V814.787H1117.98Z" fill="#8294A0"/>
</g>
<g filter="url(#filter22_i_20_723)">
<path d="M1108.84 814.787V543.947H1097.41V814.787H1108.84Z" fill="#8294A0"/>
</g>
<g filter="url(#filter23_i_20_723)">
<path d="M1099.7 814.787V543.947H1088.27V814.787H1099.7Z" fill="#8294A0"/>
</g>
<g filter="url(#filter24_i_20_723)">
<path d="M1090.56 814.787V543.947H1079.13V814.787H1090.56Z" fill="#8294A0"/>
</g>
<g filter="url(#filter25_i_20_723)">
<path d="M1081.41 814.787V543.947H1069.99V814.787H1081.41Z" fill="#8294A0"/>
</g>
<g filter="url(#filter26_i_20_723)">
<path d="M1072.27 814.787V543.947H1060.84V814.787H1072.27Z" fill="#8294A0"/>
</g>
<g filter="url(#filter27_i_20_723)">
<path d="M1063.13 814.787V543.947H1051.7V814.787H1063.13Z" fill="#8294A0"/>
</g>
<g filter="url(#filter28_i_20_723)">
<path d="M1053.99 814.787V543.947H1042.56V814.787H1053.99Z" fill="#8294A0"/>
</g>
<g filter="url(#filter29_i_20_723)">
<path d="M1044.85 814.787V543.947H1033.42V814.787H1044.85Z" fill="#8294A0"/>
</g>
<g filter="url(#filter30_i_20_723)">
<path d="M1035.7 814.787V543.947H1024.27V814.787H1035.7Z" fill="#8294A0"/>
</g>
<g filter="url(#filter31_i_20_723)">
<path d="M1026.56 814.787V543.947H1015.13V814.787H1026.56Z" fill="#8294A0"/>
</g>
<g filter="url(#filter32_i_20_723)">
<path d="M1017.42 814.787V543.947H1005.99V814.787H1017.42Z" fill="#8294A0"/>
</g>
<g filter="url(#filter33_i_20_723)">
<path d="M1008.28 814.787V543.947H996.848V814.787H1008.28Z" fill="#8294A0"/>
</g>
<g filter="url(#filter34_i_20_723)">
<path d="M999.134 814.787V543.947H987.706V814.787H999.134Z" fill="#8294A0"/>
</g>
<g filter="url(#filter35_i_20_723)">
<rect x="1000.28" y="711.937" width="140.563" height="105.136" fill="#FDFDFD"/>
</g>
<path d="M714.58 814.787H961.538V486.808L714.58 529.091V814.787Z" fill="#E67435"/>
<g filter="url(#filter36_i_20_723)">
<path d="M786.576 814.787H889.426V746.22H786.576V814.787Z" fill="white"/>
</g>
<rect x="749.391" y="662.523" width="38.4852" height="48.8866" fill="white"/>
<rect x="795.157" y="662.523" width="38.4852" height="48.8866" fill="white"/>
<rect x="840.923" y="662.523" width="38.4852" height="48.8866" fill="white"/>
<rect x="886.689" y="662.523" width="38.4852" height="48.8866" fill="white"/>
<rect x="749.391" y="606.356" width="38.4852" height="48.8866" fill="white"/>
<rect x="795.157" y="606.356" width="38.4852" height="48.8866" fill="white"/>
<rect x="840.923" y="606.356" width="38.4852" height="48.8866" fill="white"/>
<rect x="886.689" y="606.356" width="38.4852" height="48.8866" fill="white"/>
<rect x="749.391" y="550.188" width="38.4852" height="48.8866" fill="white"/>
<rect x="795.157" y="550.188" width="38.4852" height="48.8866" fill="white"/>
<rect x="840.923" y="550.188" width="38.4852" height="48.8866" fill="white"/>
<rect x="886.689" y="550.188" width="38.4852" height="48.8866" fill="white"/>
<rect x="789.956" y="549.148" width="5.2007" height="164.342" fill="#123348"/>
<rect x="743.15" y="549.148" width="5.2007" height="164.342" fill="#123348"/>
<rect x="926.214" y="549.148" width="5.2007" height="164.342" fill="#123348"/>
<rect x="835.722" y="549.148" width="5.2007" height="164.342" fill="#123348"/>
<rect x="881.488" y="549.148" width="5.2007" height="164.342" fill="#123348"/>
<rect x="749.391" y="606.356" width="5.2007" height="175.784" transform="rotate(-90 749.391 606.356)" fill="#123348"/>
<rect x="749.391" y="551.092" width="5.2007" height="175.784" transform="rotate(-90 749.391 551.092)" fill="#123348"/>
<rect x="749.391" y="717.651" width="5.2007" height="175.784" transform="rotate(-90 749.391 717.651)" fill="#123348"/>
<rect x="749.391" y="662.523" width="5.2007" height="175.784" transform="rotate(-90 749.391 662.523)" fill="#123348"/>
<path d="M1226.55 611.136H1242.93L1242.35 586.569V586.559L1240.21 496.477C1238.56 497.482 1236.67 498.013 1234.74 498.013C1232.82 498.013 1230.93 497.482 1229.28 496.477L1227.14 586.559V586.569L1226.55 611.136Z" fill="#103955"/>
<path d="M1196.53 628.876V825.432H1272.96V626.148L1255.22 626.78V586.569H1214.27V628.244L1196.53 628.876Z" fill="#103955"/>
<path d="M1225.3 695.137H1244.19V676.254H1225.3V695.137Z" fill="#FDCA17"/>
<path d="M1225.3 725.351H1244.19V706.467H1225.3V725.351Z" fill="#FDCA17"/>
<path d="M1225.3 755.564H1244.19V736.681H1225.3V755.564Z" fill="#FDCA17"/>
<path d="M1225.3 785.777H1244.19V766.894H1225.3V785.777Z" fill="#FDCA17"/>
<defs>
<filter id="filter0_i_20_723" x="622.015" y="803.359" width="103.993" height="15.4279" filterUnits="userSpaceOnUse" color-interpolation-filters="sRGB">
<feFlood flood-opacity="0" result="BackgroundImageFix"/>
<feBlend mode="normal" in="SourceGraphic" in2="BackgroundImageFix" result="shape"/>
<feColorMatrix in="SourceAlpha" type="matrix" values="0 0 0 0 0 0 0 0 0 0 0 0 0 0 0 0 0 0 127 0" result="hardAlpha"/>
<feOffset dy="4"/>
<feGaussianBlur stdDeviation="2"/>
<feComposite in2="hardAlpha" operator="arithmetic" k2="-1" k3="1"/>
<feColorMatrix type="matrix" values="0 0 0 0 0 0 0 0 0 0 0 0 0 0 0 0 0 0 0.25 0"/>
<feBlend mode="normal" in2="shape" result="effect1_innerShadow_20_723"/>
</filter>
<filter id="filter1_i_20_723" x="622.015" y="794.217" width="103.993" height="15.4279" filterUnits="userSpaceOnUse" color-interpolation-filters="sRGB">
<feFlood flood-opacity="0" result="BackgroundImageFix"/>
<feBlend mode="normal" in="SourceGraphic" in2="BackgroundImageFix" result="shape"/>
<feColorMatrix in="SourceAlpha" type="matrix" values="0 0 0 0 0 0 0 0 0 0 0 0 0 0 0 0 0 0 127 0" result="hardAlpha"/>
<feOffset dy="4"/>
<feGaussianBlur stdDeviation="2"/>
<feComposite in2="hardAlpha" operator="arithmetic" k2="-1" k3="1"/>
<feColorMatrix type="matrix" values="0 0 0 0 0 0 0 0 0 0 0 0 0 0 0 0 0 0 0.25 0"/>
<feBlend mode="normal" in2="shape" result="effect1_innerShadow_20_723"/>
</filter>
<filter id="filter2_i_20_723" x="622.015" y="785.075" width="103.993" height="15.4279" filterUnits="userSpaceOnUse" color-interpolation-filters="sRGB">
<feFlood flood-opacity="0" result="BackgroundImageFix"/>
<feBlend mode="normal" in="SourceGraphic" in2="BackgroundImageFix" result="shape"/>
<feColorMatrix in="SourceAlpha" type="matrix" values="0 0 0 0 0 0 0 0 0 0 0 0 0 0 0 0 0 0 127 0" result="hardAlpha"/>
<feOffset dy="4"/>
<feGaussianBlur stdDeviation="2"/>
<feComposite in2="hardAlpha" operator="arithmetic" k2="-1" k3="1"/>
<feColorMatrix type="matrix" values="0 0 0 0 0 0 0 0 0 0 0 0 0 0 0 0 0 0 0.25 0"/>
<feBlend mode="normal" in2="shape" result="effect1_innerShadow_20_723"/>
</filter>
<filter id="filter3_i_20_723" x="622.015" y="775.933" width="103.993" height="15.4279" filterUnits="userSpaceOnUse" color-interpolation-filters="sRGB">
<feFlood flood-opacity="0" result="BackgroundImageFix"/>
<feBlend mode="normal" in="SourceGraphic" in2="BackgroundImageFix" result="shape"/>
<feColorMatrix in="SourceAlpha" type="matrix" values="0 0 0 0 0 0 0 0 0 0 0 0 0 0 0 0 0 0 127 0" result="hardAlpha"/>
<feOffset dy="4"/>
<feGaussianBlur stdDeviation="2"/>
<feComposite in2="hardAlpha" operator="arithmetic" k2="-1" k3="1"/>
<feColorMatrix type="matrix" values="0 0 0 0 0 0 0 0 0 0 0 0 0 0 0 0 0 0 0.25 0"/>
<feBlend mode="normal" in2="shape" result="effect1_innerShadow_20_723"/>
</filter>
<filter id="filter4_i_20_723" x="622.015" y="766.791" width="103.993" height="15.4279" filterUnits="userSpaceOnUse" color-interpolation-filters="sRGB">
<feFlood flood-opacity="0" result="BackgroundImageFix"/>
<feBlend mode="normal" in="SourceGraphic" in2="BackgroundImageFix" result="shape"/>
<feColorMatrix in="SourceAlpha" type="matrix" values="0 0 0 0 0 0 0 0 0 0 0 0 0 0 0 0 0 0 127 0" result="hardAlpha"/>
<feOffset dy="4"/>
<feGaussianBlur stdDeviation="2"/>
<feComposite in2="hardAlpha" operator="arithmetic" k2="-1" k3="1"/>
<feColorMatrix type="matrix" values="0 0 0 0 0 0 0 0 0 0 0 0 0 0 0 0 0 0 0.25 0"/>
<feBlend mode="normal" in2="shape" result="effect1_innerShadow_20_723"/>
</filter>
<filter id="filter5_i_20_723" x="622.015" y="757.648" width="103.993" height="15.4279" filterUnits="userSpaceOnUse" color-interpolation-filters="sRGB">
<feFlood flood-opacity="0" result="BackgroundImageFix"/>
<feBlend mode="normal" in="SourceGraphic" in2="BackgroundImageFix" result="shape"/>
<feColorMatrix in="SourceAlpha" type="matrix" values="0 0 0 0 0 0 0 0 0 0 0 0 0 0 0 0 0 0 127 0" result="hardAlpha"/>
<feOffset dy="4"/>
<feGaussianBlur stdDeviation="2"/>
<feComposite in2="hardAlpha" operator="arithmetic" k2="-1" k3="1"/>
<feColorMatrix type="matrix" values="0 0 0 0 0 0 0 0 0 0 0 0 0 0 0 0 0 0 0.25 0"/>
<feBlend mode="normal" in2="shape" result="effect1_innerShadow_20_723"/>
</filter>
<filter id="filter6_i_20_723" x="622.015" y="748.506" width="103.993" height="15.4279" filterUnits="userSpaceOnUse" color-interpolation-filters="sRGB">
<feFlood flood-opacity="0" result="BackgroundImageFix"/>
<feBlend mode="normal" in="SourceGraphic" in2="BackgroundImageFix" result="shape"/>
<feColorMatrix in="SourceAlpha" type="matrix" values="0 0 0 0 0 0 0 0 0 0 0 0 0 0 0 0 0 0 127 0" result="hardAlpha"/>
<feOffset dy="4"/>
<feGaussianBlur stdDeviation="2"/>
<feComposite in2="hardAlpha" operator="arithmetic" k2="-1" k3="1"/>
<feColorMatrix type="matrix" values="0 0 0 0 0 0 0 0 0 0 0 0 0 0 0 0 0 0 0.25 0"/>
<feBlend mode="normal" in2="shape" result="effect1_innerShadow_20_723"/>
</filter>
<filter id="filter7_i_20_723" x="622.015" y="739.364" width="103.993" height="15.4279" filterUnits="userSpaceOnUse" color-interpolation-filters="sRGB">
<feFlood flood-opacity="0" result="BackgroundImageFix"/>
<feBlend mode="normal" in="SourceGraphic" in2="BackgroundImageFix" result="shape"/>
<feColorMatrix in="SourceAlpha" type="matrix" values="0 0 0 0 0 0 0 0 0 0 0 0 0 0 0 0 0 0 127 0" result="hardAlpha"/>
<feOffset dy="4"/>
<feGaussianBlur stdDeviation="2"/>
<feComposite in2="hardAlpha" operator="arithmetic" k2="-1" k3="1"/>
<feColorMatrix type="matrix" values="0 0 0 0 0 0 0 0 0 0 0 0 0 0 0 0 0 0 0.25 0"/>
<feBlend mode="normal" in2="shape" result="effect1_innerShadow_20_723"/>
</filter>
<filter id="filter8_i_20_723" x="622.015" y="730.221" width="103.993" height="15.4279" filterUnits="userSpaceOnUse" color-interpolation-filters="sRGB">
<feFlood flood-opacity="0" result="BackgroundImageFix"/>
<feBlend mode="normal" in="SourceGraphic" in2="BackgroundImageFix" result="shape"/>
<feColorMatrix in="SourceAlpha" type="matrix" values="0 0 0 0 0 0 0 0 0 0 0 0 0 0 0 0 0 0 127 0" result="hardAlpha"/>
<feOffset dy="4"/>
<feGaussianBlur stdDeviation="2"/>
<feComposite in2="hardAlpha" operator="arithmetic" k2="-1" k3="1"/>
<feColorMatrix type="matrix" values="0 0 0 0 0 0 0 0 0 0 0 0 0 0 0 0 0 0 0.25 0"/>
<feBlend mode="normal" in2="shape" result="effect1_innerShadow_20_723"/>
</filter>
<filter id="filter9_i_20_723" x="622.015" y="721.079" width="103.993" height="15.4279" filterUnits="userSpaceOnUse" color-interpolation-filters="sRGB">
<feFlood flood-opacity="0" result="BackgroundImageFix"/>
<feBlend mode="normal" in="SourceGraphic" in2="BackgroundImageFix" result="shape"/>
<feColorMatrix in="SourceAlpha" type="matrix" values="0 0 0 0 0 0 0 0 0 0 0 0 0 0 0 0 0 0 127 0" result="hardAlpha"/>
<feOffset dy="4"/>
<feGaussianBlur stdDeviation="2"/>
<feComposite in2="hardAlpha" operator="arithmetic" k2="-1" k3="1"/>
<feColorMatrix type="matrix" values="0 0 0 0 0 0 0 0 0 0 0 0 0 0 0 0 0 0 0.25 0"/>
<feBlend mode="normal" in2="shape" result="effect1_innerShadow_20_723"/>
</filter>
<filter id="filter10_i_20_723" x="622.015" y="711.937" width="103.993" height="15.4279" filterUnits="userSpaceOnUse" color-interpolation-filters="sRGB">
<feFlood flood-opacity="0" result="BackgroundImageFix"/>
<feBlend mode="normal" in="SourceGraphic" in2="BackgroundImageFix" result="shape"/>
<feColorMatrix in="SourceAlpha" type="matrix" values="0 0 0 0 0 0 0 0 0 0 0 0 0 0 0 0 0 0 127 0" result="hardAlpha"/>
<feOffset dy="4"/>
<feGaussianBlur stdDeviation="2"/>
<feComposite in2="hardAlpha" operator="arithmetic" k2="-1" k3="1"/>
<feColorMatrix type="matrix" values="0 0 0 0 0 0 0 0 0 0 0 0 0 0 0 0 0 0 0.25 0"/>
<feBlend mode="normal" in2="shape" result="effect1_innerShadow_20_723"/>
</filter>
<filter id="filter11_i_20_723" x="622.015" y="702.795" width="103.993" height="15.4279" filterUnits="userSpaceOnUse" color-interpolation-filters="sRGB">
<feFlood flood-opacity="0" result="BackgroundImageFix"/>
<feBlend mode="normal" in="SourceGraphic" in2="BackgroundImageFix" result="shape"/>
<feColorMatrix in="SourceAlpha" type="matrix" values="0 0 0 0 0 0 0 0 0 0 0 0 0 0 0 0 0 0 127 0" result="hardAlpha"/>
<feOffset dy="4"/>
<feGaussianBlur stdDeviation="2"/>
<feComposite in2="hardAlpha" operator="arithmetic" k2="-1" k3="1"/>
<feColorMatrix type="matrix" values="0 0 0 0 0 0 0 0 0 0 0 0 0 0 0 0 0 0 0.25 0"/>
<feBlend mode="normal" in2="shape" result="effect1_innerShadow_20_723"/>
</filter>
<filter id="filter12_i_20_723" x="622.015" y="693.652" width="103.993" height="15.4279" filterUnits="userSpaceOnUse" color-interpolation-filters="sRGB">
<feFlood flood-opacity="0" result="BackgroundImageFix"/>
<feBlend mode="normal" in="SourceGraphic" in2="BackgroundImageFix" result="shape"/>
<feColorMatrix in="SourceAlpha" type="matrix" values="0 0 0 0 0 0 0 0 0 0 0 0 0 0 0 0 0 0 127 0" result="hardAlpha"/>
<feOffset dy="4"/>
<feGaussianBlur stdDeviation="2"/>
<feComposite in2="hardAlpha" operator="arithmetic" k2="-1" k3="1"/>
<feColorMatrix type="matrix" values="0 0 0 0 0 0 0 0 0 0 0 0 0 0 0 0 0 0 0.25 0"/>
<feBlend mode="normal" in2="shape" result="effect1_innerShadow_20_723"/>
</filter>
<filter id="filter13_i_20_723" x="622.015" y="684.51" width="103.993" height="15.4279" filterUnits="userSpaceOnUse" color-interpolation-filters="sRGB">
<feFlood flood-opacity="0" result="BackgroundImageFix"/>
<feBlend mode="normal" in="SourceGraphic" in2="BackgroundImageFix" result="shape"/>
<feColorMatrix in="SourceAlpha" type="matrix" values="0 0 0 0 0 0 0 0 0 0 0 0 0 0 0 0 0 0 127 0" result="hardAlpha"/>
<feOffset dy="4"/>
<feGaussianBlur stdDeviation="2"/>
<feComposite in2="hardAlpha" operator="arithmetic" k2="-1" k3="1"/>
<feColorMatrix type="matrix" values="0 0 0 0 0 0 0 0 0 0 0 0 0 0 0 0 0 0 0.25 0"/>
<feBlend mode="normal" in2="shape" result="effect1_innerShadow_20_723"/>
</filter>
<filter id="filter14_i_20_723" x="622.015" y="675.368" width="103.993" height="15.4279" filterUnits="userSpaceOnUse" color-interpolation-filters="sRGB">
<feFlood flood-opacity="0" result="BackgroundImageFix"/>
<feBlend mode="normal" in="SourceGraphic" in2="BackgroundImageFix" result="shape"/>
<feColorMatrix in="SourceAlpha" type="matrix" values="0 0 0 0 0 0 0 0 0 0 0 0 0 0 0 0 0 0 127 0" result="hardAlpha"/>
<feOffset dy="4"/>
<feGaussianBlur stdDeviation="2"/>
<feComposite in2="hardAlpha" operator="arithmetic" k2="-1" k3="1"/>
<feColorMatrix type="matrix" values="0 0 0 0 0 0 0 0 0 0 0 0 0 0 0 0 0 0 0.25 0"/>
<feBlend mode="normal" in2="shape" result="effect1_innerShadow_20_723"/>
</filter>
<filter id="filter15_d_20_723" x="699.724" y="474.237" width="265.698" height="348.55" filterUnits="userSpaceOnUse" color-interpolation-filters="sRGB">
<feFlood flood-opacity="0" result="BackgroundImageFix"/>
<feColorMatrix in="SourceAlpha" type="matrix" values="0 0 0 0 0 0 0 0 0 0 0 0 0 0 0 0 0 0 127 0" result="hardAlpha"/>
<feOffset dy="4"/>
<feGaussianBlur stdDeviation="2"/>
<feComposite in2="hardAlpha" operator="out"/>
<feColorMatrix type="matrix" values="0 0 0 0 0 0 0 0 0 0 0 0 0 0 0 0 0 0 0.25 0"/>
<feBlend mode="normal" in2="BackgroundImageFix" result="effect1_dropShadow_20_723"/>
<feBlend mode="normal" in="SourceGraphic" in2="effect1_dropShadow_20_723" result="shape"/>
</filter>
<filter id="filter16_d_20_723" x="957.422" y="474.237" width="243.414" height="348.55" filterUnits="userSpaceOnUse" color-interpolation-filters="sRGB">
<feFlood flood-opacity="0" result="BackgroundImageFix"/>
<feColorMatrix in="SourceAlpha" type="matrix" values="0 0 0 0 0 0 0 0 0 0 0 0 0 0 0 0 0 0 127 0" result="hardAlpha"/>
<feOffset dy="4"/>
<feGaussianBlur stdDeviation="2"/>
<feComposite in2="hardAlpha" operator="out"/>
<feColorMatrix type="matrix" values="0 0 0 0 0 0 0 0 0 0 0 0 0 0 0 0 0 0 0.25 0"/>
<feBlend mode="normal" in2="BackgroundImageFix" result="effect1_dropShadow_20_723"/>
<feBlend mode="normal" in="SourceGraphic" in2="effect1_dropShadow_20_723" result="shape"/>
</filter>
<filter id="filter17_i_20_723" x="1115.7" y="543.947" width="11.4279" height="274.84" filterUnits="userSpaceOnUse" color-interpolation-filters="sRGB">
<feFlood flood-opacity="0" result="BackgroundImageFix"/>
<feBlend mode="normal" in="SourceGraphic" in2="BackgroundImageFix" result="shape"/>
<feColorMatrix in="SourceAlpha" type="matrix" values="0 0 0 0 0 0 0 0 0 0 0 0 0 0 0 0 0 0 127 0" result="hardAlpha"/>
<feOffset dy="4"/>
<feGaussianBlur stdDeviation="2"/>
<feComposite in2="hardAlpha" operator="arithmetic" k2="-1" k3="1"/>
<feColorMatrix type="matrix" values="0 0 0 0 0 0 0 0 0 0 0 0 0 0 0 0 0 0 0.25 0"/>
<feBlend mode="normal" in2="shape" result="effect1_innerShadow_20_723"/>
</filter>
<filter id="filter18_i_20_723" x="1124.84" y="543.947" width="11.4279" height="274.84" filterUnits="userSpaceOnUse" color-interpolation-filters="sRGB">
<feFlood flood-opacity="0" result="BackgroundImageFix"/>
<feBlend mode="normal" in="SourceGraphic" in2="BackgroundImageFix" result="shape"/>
<feColorMatrix in="SourceAlpha" type="matrix" values="0 0 0 0 0 0 0 0 0 0 0 0 0 0 0 0 0 0 127 0" result="hardAlpha"/>
<feOffset dy="4"/>
<feGaussianBlur stdDeviation="2"/>
<feComposite in2="hardAlpha" operator="arithmetic" k2="-1" k3="1"/>
<feColorMatrix type="matrix" values="0 0 0 0 0 0 0 0 0 0 0 0 0 0 0 0 0 0 0.25 0"/>
<feBlend mode="normal" in2="shape" result="effect1_innerShadow_20_723"/>
</filter>
<filter id="filter19_i_20_723" x="1133.98" y="543.947" width="11.4279" height="274.84" filterUnits="userSpaceOnUse" color-interpolation-filters="sRGB">
<feFlood flood-opacity="0" result="BackgroundImageFix"/>
<feBlend mode="normal" in="SourceGraphic" in2="BackgroundImageFix" result="shape"/>
<feColorMatrix in="SourceAlpha" type="matrix" values="0 0 0 0 0 0 0 0 0 0 0 0 0 0 0 0 0 0 127 0" result="hardAlpha"/>
<feOffset dy="4"/>
<feGaussianBlur stdDeviation="2"/>
<feComposite in2="hardAlpha" operator="arithmetic" k2="-1" k3="1"/>
<feColorMatrix type="matrix" values="0 0 0 0 0 0 0 0 0 0 0 0 0 0 0 0 0 0 0.25 0"/>
<feBlend mode="normal" in2="shape" result="effect1_innerShadow_20_723"/>
</filter>
<filter id="filter20_i_20_723" x="1143.12" y="543.947" width="11.4279" height="274.84" filterUnits="userSpaceOnUse" color-interpolation-filters="sRGB">
<feFlood flood-opacity="0" result="BackgroundImageFix"/>
<feBlend mode="normal" in="SourceGraphic" in2="BackgroundImageFix" result="shape"/>
<feColorMatrix in="SourceAlpha" type="matrix" values="0 0 0 0 0 0 0 0 0 0 0 0 0 0 0 0 0 0 127 0" result="hardAlpha"/>
<feOffset dy="4"/>
<feGaussianBlur stdDeviation="2"/>
<feComposite in2="hardAlpha" operator="arithmetic" k2="-1" k3="1"/>
<feColorMatrix type="matrix" values="0 0 0 0 0 0 0 0 0 0 0 0 0 0 0 0 0 0 0.25 0"/>
<feBlend mode="normal" in2="shape" result="effect1_innerShadow_20_723"/>
</filter>
<filter id="filter21_i_20_723" x="1106.56" y="543.947" width="11.4279" height="274.84" filterUnits="userSpaceOnUse" color-interpolation-filters="sRGB">
<feFlood flood-opacity="0" result="BackgroundImageFix"/>
<feBlend mode="normal" in="SourceGraphic" in2="BackgroundImageFix" result="shape"/>
<feColorMatrix in="SourceAlpha" type="matrix" values="0 0 0 0 0 0 0 0 0 0 0 0 0 0 0 0 0 0 127 0" result="hardAlpha"/>
<feOffset dy="4"/>
<feGaussianBlur stdDeviation="2"/>
<feComposite in2="hardAlpha" operator="arithmetic" k2="-1" k3="1"/>
<feColorMatrix type="matrix" values="0 0 0 0 0 0 0 0 0 0 0 0 0 0 0 0 0 0 0.25 0"/>
<feBlend mode="normal" in2="shape" result="effect1_innerShadow_20_723"/>
</filter>
<filter id="filter22_i_20_723" x="1097.41" y="543.947" width="11.4279" height="274.84" filterUnits="userSpaceOnUse" color-interpolation-filters="sRGB">
<feFlood flood-opacity="0" result="BackgroundImageFix"/>
<feBlend mode="normal" in="SourceGraphic" in2="BackgroundImageFix" result="shape"/>
<feColorMatrix in="SourceAlpha" type="matrix" values="0 0 0 0 0 0 0 0 0 0 0 0 0 0 0 0 0 0 127 0" result="hardAlpha"/>
<feOffset dy="4"/>
<feGaussianBlur stdDeviation="2"/>
<feComposite in2="hardAlpha" operator="arithmetic" k2="-1" k3="1"/>
<feColorMatrix type="matrix" values="0 0 0 0 0 0 0 0 0 0 0 0 0 0 0 0 0 0 0.25 0"/>
<feBlend mode="normal" in2="shape" result="effect1_innerShadow_20_723"/>
</filter>
<filter id="filter23_i_20_723" x="1088.27" y="543.947" width="11.4279" height="274.84" filterUnits="userSpaceOnUse" color-interpolation-filters="sRGB">
<feFlood flood-opacity="0" result="BackgroundImageFix"/>
<feBlend mode="normal" in="SourceGraphic" in2="BackgroundImageFix" result="shape"/>
<feColorMatrix in="SourceAlpha" type="matrix" values="0 0 0 0 0 0 0 0 0 0 0 0 0 0 0 0 0 0 127 0" result="hardAlpha"/>
<feOffset dy="4"/>
<feGaussianBlur stdDeviation="2"/>
<feComposite in2="hardAlpha" operator="arithmetic" k2="-1" k3="1"/>
<feColorMatrix type="matrix" values="0 0 0 0 0 0 0 0 0 0 0 0 0 0 0 0 0 0 0.25 0"/>
<feBlend mode="normal" in2="shape" result="effect1_innerShadow_20_723"/>
</filter>
<filter id="filter24_i_20_723" x="1079.13" y="543.947" width="11.4279" height="274.84" filterUnits="userSpaceOnUse" color-interpolation-filters="sRGB">
<feFlood flood-opacity="0" result="BackgroundImageFix"/>
<feBlend mode="normal" in="SourceGraphic" in2="BackgroundImageFix" result="shape"/>
<feColorMatrix in="SourceAlpha" type="matrix" values="0 0 0 0 0 0 0 0 0 0 0 0 0 0 0 0 0 0 127 0" result="hardAlpha"/>
<feOffset dy="4"/>
<feGaussianBlur stdDeviation="2"/>
<feComposite in2="hardAlpha" operator="arithmetic" k2="-1" k3="1"/>
<feColorMatrix type="matrix" values="0 0 0 0 0 0 0 0 0 0 0 0 0 0 0 0 0 0 0.25 0"/>
<feBlend mode="normal" in2="shape" result="effect1_innerShadow_20_723"/>
</filter>
<filter id="filter25_i_20_723" x="1069.99" y="543.947" width="11.4279" height="274.84" filterUnits="userSpaceOnUse" color-interpolation-filters="sRGB">
<feFlood flood-opacity="0" result="BackgroundImageFix"/>
<feBlend mode="normal" in="SourceGraphic" in2="BackgroundImageFix" result="shape"/>
<feColorMatrix in="SourceAlpha" type="matrix" values="0 0 0 0 0 0 0 0 0 0 0 0 0 0 0 0 0 0 127 0" result="hardAlpha"/>
<feOffset dy="4"/>
<feGaussianBlur stdDeviation="2"/>
<feComposite in2="hardAlpha" operator="arithmetic" k2="-1" k3="1"/>
<feColorMatrix type="matrix" values="0 0 0 0 0 0 0 0 0 0 0 0 0 0 0 0 0 0 0.25 0"/>
<feBlend mode="normal" in2="shape" result="effect1_innerShadow_20_723"/>
</filter>
<filter id="filter26_i_20_723" x="1060.84" y="543.947" width="11.4279" height="274.84" filterUnits="userSpaceOnUse" color-interpolation-filters="sRGB">
<feFlood flood-opacity="0" result="BackgroundImageFix"/>
<feBlend mode="normal" in="SourceGraphic" in2="BackgroundImageFix" result="shape"/>
<feColorMatrix in="SourceAlpha" type="matrix" values="0 0 0 0 0 0 0 0 0 0 0 0 0 0 0 0 0 0 127 0" result="hardAlpha"/>
<feOffset dy="4"/>
<feGaussianBlur stdDeviation="2"/>
<feComposite in2="hardAlpha" operator="arithmetic" k2="-1" k3="1"/>
<feColorMatrix type="matrix" values="0 0 0 0 0 0 0 0 0 0 0 0 0 0 0 0 0 0 0.25 0"/>
<feBlend mode="normal" in2="shape" result="effect1_innerShadow_20_723"/>
</filter>
<filter id="filter27_i_20_723" x="1051.7" y="543.947" width="11.4279" height="274.84" filterUnits="userSpaceOnUse" color-interpolation-filters="sRGB">
<feFlood flood-opacity="0" result="BackgroundImageFix"/>
<feBlend mode="normal" in="SourceGraphic" in2="BackgroundImageFix" result="shape"/>
<feColorMatrix in="SourceAlpha" type="matrix" values="0 0 0 0 0 0 0 0 0 0 0 0 0 0 0 0 0 0 127 0" result="hardAlpha"/>
<feOffset dy="4"/>
<feGaussianBlur stdDeviation="2"/>
<feComposite in2="hardAlpha" operator="arithmetic" k2="-1" k3="1"/>
<feColorMatrix type="matrix" values="0 0 0 0 0 0 0 0 0 0 0 0 0 0 0 0 0 0 0.25 0"/>
<feBlend mode="normal" in2="shape" result="effect1_innerShadow_20_723"/>
</filter>
<filter id="filter28_i_20_723" x="1042.56" y="543.947" width="11.4279" height="274.84" filterUnits="userSpaceOnUse" color-interpolation-filters="sRGB">
<feFlood flood-opacity="0" result="BackgroundImageFix"/>
<feBlend mode="normal" in="SourceGraphic" in2="BackgroundImageFix" result="shape"/>
<feColorMatrix in="SourceAlpha" type="matrix" values="0 0 0 0 0 0 0 0 0 0 0 0 0 0 0 0 0 0 127 0" result="hardAlpha"/>
<feOffset dy="4"/>
<feGaussianBlur stdDeviation="2"/>
<feComposite in2="hardAlpha" operator="arithmetic" k2="-1" k3="1"/>
<feColorMatrix type="matrix" values="0 0 0 0 0 0 0 0 0 0 0 0 0 0 0 0 0 0 0.25 0"/>
<feBlend mode="normal" in2="shape" result="effect1_innerShadow_20_723"/>
</filter>
<filter id="filter29_i_20_723" x="1033.42" y="543.947" width="11.4279" height="274.84" filterUnits="userSpaceOnUse" color-interpolation-filters="sRGB">
<feFlood flood-opacity="0" result="BackgroundImageFix"/>
<feBlend mode="normal" in="SourceGraphic" in2="BackgroundImageFix" result="shape"/>
<feColorMatrix in="SourceAlpha" type="matrix" values="0 0 0 0 0 0 0 0 0 0 0 0 0 0 0 0 0 0 127 0" result="hardAlpha"/>
<feOffset dy="4"/>
<feGaussianBlur stdDeviation="2"/>
<feComposite in2="hardAlpha" operator="arithmetic" k2="-1" k3="1"/>
<feColorMatrix type="matrix" values="0 0 0 0 0 0 0 0 0 0 0 0 0 0 0 0 0 0 0.25 0"/>
<feBlend mode="normal" in2="shape" result="effect1_innerShadow_20_723"/>
</filter>
<filter id="filter30_i_20_723" x="1024.27" y="543.947" width="11.4279" height="274.84" filterUnits="userSpaceOnUse" color-interpolation-filters="sRGB">
<feFlood flood-opacity="0" result="BackgroundImageFix"/>
<feBlend mode="normal" in="SourceGraphic" in2="BackgroundImageFix" result="shape"/>
<feColorMatrix in="SourceAlpha" type="matrix" values="0 0 0 0 0 0 0 0 0 0 0 0 0 0 0 0 0 0 127 0" result="hardAlpha"/>
<feOffset dy="4"/>
<feGaussianBlur stdDeviation="2"/>
<feComposite in2="hardAlpha" operator="arithmetic" k2="-1" k3="1"/>
<feColorMatrix type="matrix" values="0 0 0 0 0 0 0 0 0 0 0 0 0 0 0 0 0 0 0.25 0"/>
<feBlend mode="normal" in2="shape" result="effect1_innerShadow_20_723"/>
</filter>
<filter id="filter31_i_20_723" x="1015.13" y="543.947" width="11.4279" height="274.84" filterUnits="userSpaceOnUse" color-interpolation-filters="sRGB">
<feFlood flood-opacity="0" result="BackgroundImageFix"/>
<feBlend mode="normal" in="SourceGraphic" in2="BackgroundImageFix" result="shape"/>
<feColorMatrix in="SourceAlpha" type="matrix" values="0 0 0 0 0 0 0 0 0 0 0 0 0 0 0 0 0 0 127 0" result="hardAlpha"/>
<feOffset dy="4"/>
<feGaussianBlur stdDeviation="2"/>
<feComposite in2="hardAlpha" operator="arithmetic" k2="-1" k3="1"/>
<feColorMatrix type="matrix" values="0 0 0 0 0 0 0 0 0 0 0 0 0 0 0 0 0 0 0.25 0"/>
<feBlend mode="normal" in2="shape" result="effect1_innerShadow_20_723"/>
</filter>
<filter id="filter32_i_20_723" x="1005.99" y="543.947" width="11.4279" height="274.84" filterUnits="userSpaceOnUse" color-interpolation-filters="sRGB">
<feFlood flood-opacity="0" result="BackgroundImageFix"/>
<feBlend mode="normal" in="SourceGraphic" in2="BackgroundImageFix" result="shape"/>
<feColorMatrix in="SourceAlpha" type="matrix" values="0 0 0 0 0 0 0 0 0 0 0 0 0 0 0 0 0 0 127 0" result="hardAlpha"/>
<feOffset dy="4"/>
<feGaussianBlur stdDeviation="2"/>
<feComposite in2="hardAlpha" operator="arithmetic" k2="-1" k3="1"/>
<feColorMatrix type="matrix" values="0 0 0 0 0 0 0 0 0 0 0 0 0 0 0 0 0 0 0.25 0"/>
<feBlend mode="normal" in2="shape" result="effect1_innerShadow_20_723"/>
</filter>
<filter id="filter33_i_20_723" x="996.848" y="543.947" width="11.4279" height="274.84" filterUnits="userSpaceOnUse" color-interpolation-filters="sRGB">
<feFlood flood-opacity="0" result="BackgroundImageFix"/>
<feBlend mode="normal" in="SourceGraphic" in2="BackgroundImageFix" result="shape"/>
<feColorMatrix in="SourceAlpha" type="matrix" values="0 0 0 0 0 0 0 0 0 0 0 0 0 0 0 0 0 0 127 0" result="hardAlpha"/>
<feOffset dy="4"/>
<feGaussianBlur stdDeviation="2"/>
<feComposite in2="hardAlpha" operator="arithmetic" k2="-1" k3="1"/>
<feColorMatrix type="matrix" values="0 0 0 0 0 0 0 0 0 0 0 0 0 0 0 0 0 0 0.25 0"/>
<feBlend mode="normal" in2="shape" result="effect1_innerShadow_20_723"/>
</filter>
<filter id="filter34_i_20_723" x="987.706" y="543.947" width="11.4279" height="274.84" filterUnits="userSpaceOnUse" color-interpolation-filters="sRGB">
<feFlood flood-opacity="0" result="BackgroundImageFix"/>
<feBlend mode="normal" in="SourceGraphic" in2="BackgroundImageFix" result="shape"/>
<feColorMatrix in="SourceAlpha" type="matrix" values="0 0 0 0 0 0 0 0 0 0 0 0 0 0 0 0 0 0 127 0" result="hardAlpha"/>
<feOffset dy="4"/>
<feGaussianBlur stdDeviation="2"/>
<feComposite in2="hardAlpha" operator="arithmetic" k2="-1" k3="1"/>
<feColorMatrix type="matrix" values="0 0 0 0 0 0 0 0 0 0 0 0 0 0 0 0 0 0 0.25 0"/>
<feBlend mode="normal" in2="shape" result="effect1_innerShadow_20_723"/>
</filter>
<filter id="filter35_i_20_723" x="1000.28" y="711.937" width="140.563" height="109.136" filterUnits="userSpaceOnUse" color-interpolation-filters="sRGB">
<feFlood flood-opacity="0" result="BackgroundImageFix"/>
<feBlend mode="normal" in="SourceGraphic" in2="BackgroundImageFix" result="shape"/>
<feColorMatrix in="SourceAlpha" type="matrix" values="0 0 0 0 0 0 0 0 0 0 0 0 0 0 0 0 0 0 127 0" result="hardAlpha"/>
<feOffset dy="4"/>
<feGaussianBlur stdDeviation="2"/>
<feComposite in2="hardAlpha" operator="arithmetic" k2="-1" k3="1"/>
<feColorMatrix type="matrix" values="0 0 0 0 0 0 0 0 0 0 0 0 0 0 0 0 0 0 0.25 0"/>
<feBlend mode="normal" in2="shape" result="effect1_innerShadow_20_723"/>
</filter>
<filter id="filter36_i_20_723" x="786.576" y="746.22" width="102.851" height="72.5671" filterUnits="userSpaceOnUse" color-interpolation-filters="sRGB">
<feFlood flood-opacity="0" result="BackgroundImageFix"/>
<feBlend mode="normal" in="SourceGraphic" in2="BackgroundImageFix" result="shape"/>
<feColorMatrix in="SourceAlpha" type="matrix" values="0 0 0 0 0 0 0 0 0 0 0 0 0 0 0 0 0 0 127 0" result="hardAlpha"/>
<feOffset dy="4"/>
<feGaussianBlur stdDeviation="2"/>
<feComposite in2="hardAlpha" operator="arithmetic" k2="-1" k3="1"/>
<feColorMatrix type="matrix" values="0 0 0 0 0 0 0 0 0 0 0 0 0 0 0 0 0 0 0.25 0"/>
<feBlend mode="normal" in2="shape" result="effect1_innerShadow_20_723"/>
</filter>
</defs>
</svg>
