<svg width="1422" height="734" viewBox="0 0 1422 734" fill="none" xmlns="http://www.w3.org/2000/svg">
<circle cx="1148" cy="519" r="195" fill="#FFC700" fill-opacity="0.37"/>
<path d="M215.305 716.595L190.307 676.924L215.316 720.916L215.33 725.437C217.113 725.416 218.879 725.347 220.626 725.232L218.587 667.164L218.614 666.715L218.568 666.63L218.374 661.143L244.511 617.664L218.347 657.034L218.269 658.196L216.728 614.324L239.198 569.339L216.553 606.615L215.499 515.68L215.495 515.377L215.491 515.675L214.978 587.371L193.507 558.684L214.997 593.546L215.097 632.815L195.175 594.889L215.108 638.588L215.163 660.423L186.224 607.617L215.186 668.04L215.305 716.595Z" fill="white"/>
<path d="M20.999 723.791L2.94827 695.145L21.0074 726.911L21.0171 730.175C22.3048 730.16 23.5796 730.111 24.8414 730.027L23.3691 688.097L23.3885 687.773L23.3553 687.711L23.2151 683.749L42.0888 652.353L23.1956 680.782L23.1391 681.621L22.0269 649.941L38.2523 617.458L21.9001 644.375L21.1395 578.711L21.136 578.492L21.1334 578.707L20.763 630.479L5.25889 609.764L20.7768 634.938L20.8488 663.293L6.46315 635.907L20.8567 667.462L20.8965 683.229L0 645.098L20.9129 688.73L20.999 723.791Z" fill="#E2E2E2"/>
<path d="M1343.33 377.898C1347.39 377.893 1351.32 379.357 1354.39 382.019C1356.81 381.357 1359.35 381.245 1361.83 381.692C1363.88 378.72 1366.82 376.481 1370.23 375.302C1373.64 374.122 1377.34 374.065 1380.79 375.137C1384.23 376.21 1387.25 378.356 1389.38 381.263C1391.52 384.17 1392.68 387.684 1392.68 391.293H1326.78C1327.59 387.503 1329.67 384.105 1332.68 381.667C1335.69 379.229 1339.45 377.899 1343.33 377.898Z" fill="black" fill-opacity="0.11"/>
<path d="M922.452 238.902C926.514 238.898 930.442 240.361 933.511 243.023C935.936 242.361 938.478 242.249 940.952 242.696C943 239.724 945.944 237.485 949.356 236.306C952.767 235.127 956.465 235.069 959.911 236.142C963.357 237.214 966.37 239.36 968.51 242.267C970.649 245.174 971.803 248.688 971.803 252.298H905.902C906.71 248.507 908.794 245.109 911.807 242.671C914.819 240.233 918.576 238.903 922.452 238.902Z" fill="black" fill-opacity="0.11"/>
<path d="M1289.87 286.53C1293.93 286.526 1297.86 287.989 1300.93 290.651C1303.35 289.989 1305.89 289.877 1308.37 290.324C1310.42 287.352 1313.36 285.113 1316.77 283.934C1320.18 282.755 1323.88 282.697 1327.33 283.769C1330.77 284.842 1333.79 286.988 1335.92 289.895C1338.06 292.802 1339.22 296.316 1339.22 299.925H1273.32C1274.13 296.135 1276.21 292.737 1279.22 290.299C1282.23 287.861 1285.99 286.531 1289.87 286.53Z" fill="black" fill-opacity="0.11"/>
<path d="M405.047 3.82147C409.274 3.81661 413.36 5.33924 416.554 8.10897C419.077 7.41989 421.722 7.30368 424.295 7.7688C426.426 4.67669 429.49 2.34698 433.039 1.12001C436.588 -0.106955 440.436 -0.166876 444.022 0.949019C447.607 2.06491 450.742 4.29815 452.968 7.32243C455.194 10.3467 456.394 14.0035 456.394 17.7587H387.827C388.668 13.8152 390.836 10.2797 393.971 7.74302C397.105 5.2063 401.014 3.82202 405.047 3.82147Z" fill="white" fill-opacity="0.42"/>
<path d="M453.646 230.297C457.874 230.292 461.96 231.815 465.153 234.584C467.676 233.895 470.322 233.779 472.895 234.244C475.026 231.152 478.09 228.822 481.639 227.595C485.188 226.368 489.036 226.308 492.622 227.424C496.207 228.54 499.342 230.773 501.568 233.798C503.794 236.822 504.994 240.479 504.994 244.234H436.427C437.268 240.291 439.436 236.755 442.57 234.218C445.705 231.682 449.614 230.297 453.646 230.297Z" fill="white" fill-opacity="0.42"/>
<path d="M1298.54 732.93H144.33V724.93H1298.54V732.93Z" fill="#3F3D56"/>
<path d="M1297.54 715.558L1272.54 675.888L1297.55 719.88L1297.56 724.4C1299.35 724.379 1301.11 724.311 1302.86 724.195L1300.82 666.128L1300.85 665.679L1300.8 665.593L1300.61 660.106L1326.74 616.627L1300.58 655.997L1300.5 657.159L1298.96 613.287L1321.43 568.303L1298.79 605.578L1297.73 514.643L1297.73 514.341L1297.72 514.638L1297.21 586.334L1275.74 557.648L1297.23 592.51L1297.33 631.778L1277.41 593.852L1297.34 637.551L1297.4 659.386L1268.46 606.58L1297.42 667.004L1297.54 715.558Z" fill="white"/>
<path d="M1392.79 720.418L1367.8 680.748L1392.81 724.74L1392.82 729.26C1394.6 729.239 1396.37 729.171 1398.11 729.055L1396.08 670.988L1396.1 670.539L1396.06 670.453L1395.86 664.966L1422 621.487L1395.84 660.857L1395.76 662.019L1394.22 618.147L1416.69 573.163L1394.04 610.438L1392.99 519.503L1392.98 519.201L1392.98 519.498L1392.47 591.194L1371 562.508L1392.49 597.37L1392.59 636.638L1372.66 598.712L1392.6 642.411L1392.65 664.246L1363.71 611.44L1392.67 671.864L1392.79 720.418Z" fill="white"/>
<path d="M529.449 487.49V725.395H621.969V484.187L614.369 484.461L600.485 484.953V436.281H550.922V486.724L529.449 487.49Z" fill="#2E5773"/>
<path d="M554.297 259.765C554.294 259.909 554.286 260.052 554.286 260.197C554.283 262.848 554.814 265.472 555.847 267.914C556.88 270.356 558.393 272.565 560.297 274.41C560.595 275.044 560.925 275.662 561.288 276.262C559.91 280.404 559.219 284.743 559.242 289.108C559.242 304.163 567.009 316.368 576.589 316.368C586.17 316.368 593.936 304.163 593.936 289.108C593.943 285.847 593.564 282.596 592.806 279.425C595.78 276.206 597.604 272.091 597.99 267.725C598.376 263.359 597.303 258.989 594.939 255.298C596.916 257.025 599.216 258.342 601.706 259.173C604.196 260.004 606.826 260.333 609.444 260.139C612.062 259.945 614.615 259.234 616.956 258.045C619.296 256.857 621.378 255.215 623.079 253.216C624.78 251.217 626.067 248.899 626.865 246.399C627.663 243.898 627.957 241.264 627.729 238.649C627.501 236.034 626.756 233.49 625.537 231.165C624.318 228.84 622.649 226.781 620.627 225.106C624.027 223.852 627.017 221.69 629.274 218.855C631.531 216.021 632.968 212.622 633.429 209.028C633.89 205.434 633.357 201.783 631.889 198.47C630.42 195.158 628.072 192.311 625.1 190.239C622.127 188.168 618.644 186.95 615.028 186.719C611.412 186.488 607.802 187.252 604.59 188.928C601.378 190.605 598.686 193.129 596.808 196.228C594.93 199.326 593.937 202.88 593.936 206.504C593.936 206.794 593.946 207.082 593.958 207.369C591.236 206.538 588.367 206.301 585.545 206.677C582.724 207.052 580.017 208.031 577.607 209.545C575.197 211.06 573.141 213.075 571.579 215.454C570.017 217.834 568.985 220.521 568.554 223.335C566.082 221.864 563.319 220.948 560.457 220.652C557.596 220.356 554.704 220.686 551.983 221.62C549.262 222.554 546.776 224.068 544.699 226.059C542.622 228.05 541.003 230.468 539.955 233.147C538.906 235.826 538.453 238.702 538.628 241.573C538.802 244.445 539.599 247.244 540.964 249.777C542.328 252.309 544.228 254.515 546.53 256.239C548.833 257.964 551.483 259.167 554.297 259.765ZM588.154 246.154C588.44 246.154 588.724 246.144 589.007 246.132C589.185 246.718 589.389 247.292 589.619 247.853C589.147 247.258 588.64 246.69 588.103 246.152L588.154 246.154Z" fill="#5FA0CB" fill-opacity="0.22"/>
<path d="M565.793 466.016H585.618L582.314 327.241C578.042 328.776 573.369 328.776 569.098 327.241L565.793 466.016Z" fill="#2E5773"/>
<path d="M564.087 567.69H586.943V544.834H564.087V567.69Z" fill="white"/>
<path d="M564.087 604.259H586.943V581.403H564.087V604.259Z" fill="white"/>
<path d="M564.087 640.828H586.943V617.973H564.087V640.828Z" fill="white"/>
<path d="M564.087 677.397H586.943V654.542H564.087V677.397Z" fill="white"/>
<path d="M585.445 723.787H755.72V559.226H585.445V723.787Z" fill="#D36E35"/>
<g filter="url(#filter0_i_20_723)">
<path d="M622.015 723.787H726.008V712.36H622.015V723.787Z" fill="#DEDEDE"/>
</g>
<g filter="url(#filter1_i_20_723)">
<path d="M622.015 714.645H726.008V703.217H622.015V714.645Z" fill="#DEDEDE"/>
</g>
<g filter="url(#filter2_i_20_723)">
<path d="M622.015 705.503H726.008V694.075H622.015V705.503Z" fill="#DEDEDE"/>
</g>
<g filter="url(#filter3_i_20_723)">
<path d="M622.015 696.36H726.008V684.933H622.015V696.36Z" fill="#DEDEDE"/>
</g>
<g filter="url(#filter4_i_20_723)">
<path d="M622.015 687.218H726.008V675.791H622.015V687.218Z" fill="#DEDEDE"/>
</g>
<g filter="url(#filter5_i_20_723)">
<path d="M622.015 678.076H726.008V666.648H622.015V678.076Z" fill="#DEDEDE"/>
</g>
<g filter="url(#filter6_i_20_723)">
<path d="M622.015 668.934H726.008V657.506H622.015V668.934Z" fill="#DEDEDE"/>
</g>
<g filter="url(#filter7_i_20_723)">
<path d="M622.015 659.792H726.008V648.364H622.015V659.792Z" fill="#DEDEDE"/>
</g>
<g filter="url(#filter8_i_20_723)">
<path d="M622.015 650.649H726.008V639.221H622.015V650.649Z" fill="#DEDEDE"/>
</g>
<g filter="url(#filter9_i_20_723)">
<path d="M622.015 641.507H726.008V630.079H622.015V641.507Z" fill="#DEDEDE"/>
</g>
<g filter="url(#filter10_i_20_723)">
<path d="M622.015 632.365H726.008V620.937H622.015V632.365Z" fill="#DEDEDE"/>
</g>
<g filter="url(#filter11_i_20_723)">
<path d="M622.015 623.222H726.008V611.795H622.015V623.222Z" fill="#DEDEDE"/>
</g>
<g filter="url(#filter12_i_20_723)">
<path d="M622.015 614.08H726.008V602.652H622.015V614.08Z" fill="#DEDEDE"/>
</g>
<g filter="url(#filter13_i_20_723)">
<path d="M622.015 604.938H726.008V593.51H622.015V604.938Z" fill="#DEDEDE"/>
</g>
<g filter="url(#filter14_i_20_723)">
<path d="M622.015 595.796H726.008V584.368H622.015V595.796Z" fill="#DEDEDE"/>
</g>
<g filter="url(#filter15_d_20_723)">
<path d="M714.58 723.787H961.422V383.237L703.724 422.664L714.58 723.787Z" fill="#103955"/>
</g>
<g filter="url(#filter16_d_20_723)">
<path d="M1186.92 723.787H961.422V383.237L1196.84 422.664L1186.92 723.787Z" fill="#103955"/>
</g>
<path d="M1180.84 723.787H961.422V395.808L1180.84 438.091V723.787Z" fill="#2E5773"/>
<g filter="url(#filter17_i_20_723)">
<path d="M1127.13 723.787V452.947H1115.7V723.787H1127.13Z" fill="#8294A0"/>
</g>
<g filter="url(#filter18_i_20_723)">
<path d="M1136.27 723.787V452.947H1124.84V723.787H1136.27Z" fill="#8294A0"/>
</g>
<g filter="url(#filter19_i_20_723)">
<path d="M1145.41 723.787V452.947H1133.98V723.787H1145.41Z" fill="#8294A0"/>
</g>
<g filter="url(#filter20_i_20_723)">
<path d="M1154.55 723.787V452.947H1143.12V723.787H1154.55Z" fill="#8294A0"/>
</g>
<g filter="url(#filter21_i_20_723)">
<path d="M1117.98 723.787V452.947H1106.56V723.787H1117.98Z" fill="#8294A0"/>
</g>
<g filter="url(#filter22_i_20_723)">
<path d="M1108.84 723.787V452.947H1097.41V723.787H1108.84Z" fill="#8294A0"/>
</g>
<g filter="url(#filter23_i_20_723)">
<path d="M1099.7 723.787V452.947H1088.27V723.787H1099.7Z" fill="#8294A0"/>
</g>
<g filter="url(#filter24_i_20_723)">
<path d="M1090.56 723.787V452.947H1079.13V723.787H1090.56Z" fill="#8294A0"/>
</g>
<g filter="url(#filter25_i_20_723)">
<path d="M1081.41 723.787V452.947H1069.99V723.787H1081.41Z" fill="#8294A0"/>
</g>
<g filter="url(#filter26_i_20_723)">
<path d="M1072.27 723.787V452.947H1060.84V723.787H1072.27Z" fill="#8294A0"/>
</g>
<g filter="url(#filter27_i_20_723)">
<path d="M1063.13 723.787V452.947H1051.7V723.787H1063.13Z" fill="#8294A0"/>
</g>
<g filter="url(#filter28_i_20_723)">
<path d="M1053.99 723.787V452.947H1042.56V723.787H1053.99Z" fill="#8294A0"/>
</g>
<g filter="url(#filter29_i_20_723)">
<path d="M1044.85 723.787V452.947H1033.42V723.787H1044.85Z" fill="#8294A0"/>
</g>
<g filter="url(#filter30_i_20_723)">
<path d="M1035.7 723.787V452.947H1024.27V723.787H1035.7Z" fill="#8294A0"/>
</g>
<g filter="url(#filter31_i_20_723)">
<path d="M1026.56 723.787V452.947H1015.13V723.787H1026.56Z" fill="#8294A0"/>
</g>
<g filter="url(#filter32_i_20_723)">
<path d="M1017.42 723.787V452.947H1005.99V723.787H1017.42Z" fill="#8294A0"/>
</g>
<g filter="url(#filter33_i_20_723)">
<path d="M1008.28 723.787V452.947H996.848V723.787H1008.28Z" fill="#8294A0"/>
</g>
<g filter="url(#filter34_i_20_723)">
<path d="M999.134 723.787V452.947H987.706V723.787H999.134Z" fill="#8294A0"/>
</g>
<g filter="url(#filter35_i_20_723)">
<rect x="1000.28" y="620.937" width="140.563" height="105.136" fill="#FDFDFD"/>
</g>
<path d="M714.58 723.787H961.538V395.808L714.58 438.091V723.787Z" fill="#E67435"/>
<g filter="url(#filter36_i_20_723)">
<path d="M786.576 723.787H889.426V655.22H786.576V723.787Z" fill="white"/>
</g>
<rect x="749.391" y="571.523" width="38.4852" height="48.8866" fill="white"/>
<rect x="795.157" y="571.523" width="38.4852" height="48.8866" fill="white"/>
<rect x="840.923" y="571.523" width="38.4852" height="48.8866" fill="white"/>
<rect x="886.689" y="571.523" width="38.4852" height="48.8866" fill="white"/>
<rect x="749.391" y="515.356" width="38.4852" height="48.8866" fill="white"/>
<rect x="795.157" y="515.356" width="38.4852" height="48.8866" fill="white"/>
<rect x="840.923" y="515.356" width="38.4852" height="48.8866" fill="white"/>
<rect x="886.689" y="515.356" width="38.4852" height="48.8866" fill="white"/>
<rect x="749.391" y="459.188" width="38.4852" height="48.8866" fill="white"/>
<rect x="795.157" y="459.188" width="38.4852" height="48.8866" fill="white"/>
<rect x="840.923" y="459.188" width="38.4852" height="48.8866" fill="white"/>
<rect x="886.689" y="459.188" width="38.4852" height="48.8866" fill="white"/>
<rect x="789.956" y="458.148" width="5.2007" height="164.342" fill="#123348"/>
<rect x="743.15" y="458.148" width="5.2007" height="164.342" fill="#123348"/>
<rect x="926.214" y="458.148" width="5.2007" height="164.342" fill="#123348"/>
<rect x="835.722" y="458.148" width="5.2007" height="164.342" fill="#123348"/>
<rect x="881.488" y="458.148" width="5.2007" height="164.342" fill="#123348"/>
<rect x="749.391" y="515.356" width="5.2007" height="175.784" transform="rotate(-90 749.391 515.356)" fill="#123348"/>
<rect x="749.391" y="460.092" width="5.2007" height="175.784" transform="rotate(-90 749.391 460.092)" fill="#123348"/>
<rect x="749.391" y="626.651" width="5.2007" height="175.784" transform="rotate(-90 749.391 626.651)" fill="#123348"/>
<rect x="749.391" y="571.523" width="5.2007" height="175.784" transform="rotate(-90 749.391 571.523)" fill="#123348"/>
<path d="M1226.55 520.136H1242.93L1242.35 495.569V495.559L1240.21 405.477C1238.56 406.482 1236.67 407.013 1234.74 407.013C1232.82 407.013 1230.93 406.482 1229.28 405.477L1227.14 495.559V495.569L1226.55 520.136Z" fill="#103955"/>
<path d="M1196.53 537.876V734.432H1272.96V535.148L1255.22 535.78V495.569H1214.27V537.244L1196.53 537.876Z" fill="#103955"/>
<path d="M1225.3 604.137H1244.19V585.254H1225.3V604.137Z" fill="#FDCA17"/>
<path d="M1225.3 634.351H1244.19V615.467H1225.3V634.351Z" fill="#FDCA17"/>
<path d="M1225.3 664.564H1244.19V645.681H1225.3V664.564Z" fill="#FDCA17"/>
<path d="M1225.3 694.777H1244.19V675.894H1225.3V694.777Z" fill="#FDCA17"/>
<defs>
<filter id="filter0_i_20_723" x="622.015" y="712.359" width="103.993" height="15.4279" filterUnits="userSpaceOnUse" color-interpolation-filters="sRGB">
<feFlood flood-opacity="0" result="BackgroundImageFix"/>
<feBlend mode="normal" in="SourceGraphic" in2="BackgroundImageFix" result="shape"/>
<feColorMatrix in="SourceAlpha" type="matrix" values="0 0 0 0 0 0 0 0 0 0 0 0 0 0 0 0 0 0 127 0" result="hardAlpha"/>
<feOffset dy="4"/>
<feGaussianBlur stdDeviation="2"/>
<feComposite in2="hardAlpha" operator="arithmetic" k2="-1" k3="1"/>
<feColorMatrix type="matrix" values="0 0 0 0 0 0 0 0 0 0 0 0 0 0 0 0 0 0 0.25 0"/>
<feBlend mode="normal" in2="shape" result="effect1_innerShadow_20_723"/>
</filter>
<filter id="filter1_i_20_723" x="622.015" y="703.217" width="103.993" height="15.4279" filterUnits="userSpaceOnUse" color-interpolation-filters="sRGB">
<feFlood flood-opacity="0" result="BackgroundImageFix"/>
<feBlend mode="normal" in="SourceGraphic" in2="BackgroundImageFix" result="shape"/>
<feColorMatrix in="SourceAlpha" type="matrix" values="0 0 0 0 0 0 0 0 0 0 0 0 0 0 0 0 0 0 127 0" result="hardAlpha"/>
<feOffset dy="4"/>
<feGaussianBlur stdDeviation="2"/>
<feComposite in2="hardAlpha" operator="arithmetic" k2="-1" k3="1"/>
<feColorMatrix type="matrix" values="0 0 0 0 0 0 0 0 0 0 0 0 0 0 0 0 0 0 0.25 0"/>
<feBlend mode="normal" in2="shape" result="effect1_innerShadow_20_723"/>
</filter>
<filter id="filter2_i_20_723" x="622.015" y="694.075" width="103.993" height="15.4279" filterUnits="userSpaceOnUse" color-interpolation-filters="sRGB">
<feFlood flood-opacity="0" result="BackgroundImageFix"/>
<feBlend mode="normal" in="SourceGraphic" in2="BackgroundImageFix" result="shape"/>
<feColorMatrix in="SourceAlpha" type="matrix" values="0 0 0 0 0 0 0 0 0 0 0 0 0 0 0 0 0 0 127 0" result="hardAlpha"/>
<feOffset dy="4"/>
<feGaussianBlur stdDeviation="2"/>
<feComposite in2="hardAlpha" operator="arithmetic" k2="-1" k3="1"/>
<feColorMatrix type="matrix" values="0 0 0 0 0 0 0 0 0 0 0 0 0 0 0 0 0 0 0.25 0"/>
<feBlend mode="normal" in2="shape" result="effect1_innerShadow_20_723"/>
</filter>
<filter id="filter3_i_20_723" x="622.015" y="684.933" width="103.993" height="15.4279" filterUnits="userSpaceOnUse" color-interpolation-filters="sRGB">
<feFlood flood-opacity="0" result="BackgroundImageFix"/>
<feBlend mode="normal" in="SourceGraphic" in2="BackgroundImageFix" result="shape"/>
<feColorMatrix in="SourceAlpha" type="matrix" values="0 0 0 0 0 0 0 0 0 0 0 0 0 0 0 0 0 0 127 0" result="hardAlpha"/>
<feOffset dy="4"/>
<feGaussianBlur stdDeviation="2"/>
<feComposite in2="hardAlpha" operator="arithmetic" k2="-1" k3="1"/>
<feColorMatrix type="matrix" values="0 0 0 0 0 0 0 0 0 0 0 0 0 0 0 0 0 0 0.25 0"/>
<feBlend mode="normal" in2="shape" result="effect1_innerShadow_20_723"/>
</filter>
<filter id="filter4_i_20_723" x="622.015" y="675.791" width="103.993" height="15.4279" filterUnits="userSpaceOnUse" color-interpolation-filters="sRGB">
<feFlood flood-opacity="0" result="BackgroundImageFix"/>
<feBlend mode="normal" in="SourceGraphic" in2="BackgroundImageFix" result="shape"/>
<feColorMatrix in="SourceAlpha" type="matrix" values="0 0 0 0 0 0 0 0 0 0 0 0 0 0 0 0 0 0 127 0" result="hardAlpha"/>
<feOffset dy="4"/>
<feGaussianBlur stdDeviation="2"/>
<feComposite in2="hardAlpha" operator="arithmetic" k2="-1" k3="1"/>
<feColorMatrix type="matrix" values="0 0 0 0 0 0 0 0 0 0 0 0 0 0 0 0 0 0 0.25 0"/>
<feBlend mode="normal" in2="shape" result="effect1_innerShadow_20_723"/>
</filter>
<filter id="filter5_i_20_723" x="622.015" y="666.648" width="103.993" height="15.4279" filterUnits="userSpaceOnUse" color-interpolation-filters="sRGB">
<feFlood flood-opacity="0" result="BackgroundImageFix"/>
<feBlend mode="normal" in="SourceGraphic" in2="BackgroundImageFix" result="shape"/>
<feColorMatrix in="SourceAlpha" type="matrix" values="0 0 0 0 0 0 0 0 0 0 0 0 0 0 0 0 0 0 127 0" result="hardAlpha"/>
<feOffset dy="4"/>
<feGaussianBlur stdDeviation="2"/>
<feComposite in2="hardAlpha" operator="arithmetic" k2="-1" k3="1"/>
<feColorMatrix type="matrix" values="0 0 0 0 0 0 0 0 0 0 0 0 0 0 0 0 0 0 0.25 0"/>
<feBlend mode="normal" in2="shape" result="effect1_innerShadow_20_723"/>
</filter>
<filter id="filter6_i_20_723" x="622.015" y="657.506" width="103.993" height="15.4279" filterUnits="userSpaceOnUse" color-interpolation-filters="sRGB">
<feFlood flood-opacity="0" result="BackgroundImageFix"/>
<feBlend mode="normal" in="SourceGraphic" in2="BackgroundImageFix" result="shape"/>
<feColorMatrix in="SourceAlpha" type="matrix" values="0 0 0 0 0 0 0 0 0 0 0 0 0 0 0 0 0 0 127 0" result="hardAlpha"/>
<feOffset dy="4"/>
<feGaussianBlur stdDeviation="2"/>
<feComposite in2="hardAlpha" operator="arithmetic" k2="-1" k3="1"/>
<feColorMatrix type="matrix" values="0 0 0 0 0 0 0 0 0 0 0 0 0 0 0 0 0 0 0.25 0"/>
<feBlend mode="normal" in2="shape" result="effect1_innerShadow_20_723"/>
</filter>
<filter id="filter7_i_20_723" x="622.015" y="648.364" width="103.993" height="15.4279" filterUnits="userSpaceOnUse" color-interpolation-filters="sRGB">
<feFlood flood-opacity="0" result="BackgroundImageFix"/>
<feBlend mode="normal" in="SourceGraphic" in2="BackgroundImageFix" result="shape"/>
<feColorMatrix in="SourceAlpha" type="matrix" values="0 0 0 0 0 0 0 0 0 0 0 0 0 0 0 0 0 0 127 0" result="hardAlpha"/>
<feOffset dy="4"/>
<feGaussianBlur stdDeviation="2"/>
<feComposite in2="hardAlpha" operator="arithmetic" k2="-1" k3="1"/>
<feColorMatrix type="matrix" values="0 0 0 0 0 0 0 0 0 0 0 0 0 0 0 0 0 0 0.25 0"/>
<feBlend mode="normal" in2="shape" result="effect1_innerShadow_20_723"/>
</filter>
<filter id="filter8_i_20_723" x="622.015" y="639.221" width="103.993" height="15.4279" filterUnits="userSpaceOnUse" color-interpolation-filters="sRGB">
<feFlood flood-opacity="0" result="BackgroundImageFix"/>
<feBlend mode="normal" in="SourceGraphic" in2="BackgroundImageFix" result="shape"/>
<feColorMatrix in="SourceAlpha" type="matrix" values="0 0 0 0 0 0 0 0 0 0 0 0 0 0 0 0 0 0 127 0" result="hardAlpha"/>
<feOffset dy="4"/>
<feGaussianBlur stdDeviation="2"/>
<feComposite in2="hardAlpha" operator="arithmetic" k2="-1" k3="1"/>
<feColorMatrix type="matrix" values="0 0 0 0 0 0 0 0 0 0 0 0 0 0 0 0 0 0 0.25 0"/>
<feBlend mode="normal" in2="shape" result="effect1_innerShadow_20_723"/>
</filter>
<filter id="filter9_i_20_723" x="622.015" y="630.079" width="103.993" height="15.4279" filterUnits="userSpaceOnUse" color-interpolation-filters="sRGB">
<feFlood flood-opacity="0" result="BackgroundImageFix"/>
<feBlend mode="normal" in="SourceGraphic" in2="BackgroundImageFix" result="shape"/>
<feColorMatrix in="SourceAlpha" type="matrix" values="0 0 0 0 0 0 0 0 0 0 0 0 0 0 0 0 0 0 127 0" result="hardAlpha"/>
<feOffset dy="4"/>
<feGaussianBlur stdDeviation="2"/>
<feComposite in2="hardAlpha" operator="arithmetic" k2="-1" k3="1"/>
<feColorMatrix type="matrix" values="0 0 0 0 0 0 0 0 0 0 0 0 0 0 0 0 0 0 0.25 0"/>
<feBlend mode="normal" in2="shape" result="effect1_innerShadow_20_723"/>
</filter>
<filter id="filter10_i_20_723" x="622.015" y="620.937" width="103.993" height="15.4279" filterUnits="userSpaceOnUse" color-interpolation-filters="sRGB">
<feFlood flood-opacity="0" result="BackgroundImageFix"/>
<feBlend mode="normal" in="SourceGraphic" in2="BackgroundImageFix" result="shape"/>
<feColorMatrix in="SourceAlpha" type="matrix" values="0 0 0 0 0 0 0 0 0 0 0 0 0 0 0 0 0 0 127 0" result="hardAlpha"/>
<feOffset dy="4"/>
<feGaussianBlur stdDeviation="2"/>
<feComposite in2="hardAlpha" operator="arithmetic" k2="-1" k3="1"/>
<feColorMatrix type="matrix" values="0 0 0 0 0 0 0 0 0 0 0 0 0 0 0 0 0 0 0.25 0"/>
<feBlend mode="normal" in2="shape" result="effect1_innerShadow_20_723"/>
</filter>
<filter id="filter11_i_20_723" x="622.015" y="611.795" width="103.993" height="15.4279" filterUnits="userSpaceOnUse" color-interpolation-filters="sRGB">
<feFlood flood-opacity="0" result="BackgroundImageFix"/>
<feBlend mode="normal" in="SourceGraphic" in2="BackgroundImageFix" result="shape"/>
<feColorMatrix in="SourceAlpha" type="matrix" values="0 0 0 0 0 0 0 0 0 0 0 0 0 0 0 0 0 0 127 0" result="hardAlpha"/>
<feOffset dy="4"/>
<feGaussianBlur stdDeviation="2"/>
<feComposite in2="hardAlpha" operator="arithmetic" k2="-1" k3="1"/>
<feColorMatrix type="matrix" values="0 0 0 0 0 0 0 0 0 0 0 0 0 0 0 0 0 0 0.25 0"/>
<feBlend mode="normal" in2="shape" result="effect1_innerShadow_20_723"/>
</filter>
<filter id="filter12_i_20_723" x="622.015" y="602.652" width="103.993" height="15.4279" filterUnits="userSpaceOnUse" color-interpolation-filters="sRGB">
<feFlood flood-opacity="0" result="BackgroundImageFix"/>
<feBlend mode="normal" in="SourceGraphic" in2="BackgroundImageFix" result="shape"/>
<feColorMatrix in="SourceAlpha" type="matrix" values="0 0 0 0 0 0 0 0 0 0 0 0 0 0 0 0 0 0 127 0" result="hardAlpha"/>
<feOffset dy="4"/>
<feGaussianBlur stdDeviation="2"/>
<feComposite in2="hardAlpha" operator="arithmetic" k2="-1" k3="1"/>
<feColorMatrix type="matrix" values="0 0 0 0 0 0 0 0 0 0 0 0 0 0 0 0 0 0 0.25 0"/>
<feBlend mode="normal" in2="shape" result="effect1_innerShadow_20_723"/>
</filter>
<filter id="filter13_i_20_723" x="622.015" y="593.51" width="103.993" height="15.4279" filterUnits="userSpaceOnUse" color-interpolation-filters="sRGB">
<feFlood flood-opacity="0" result="BackgroundImageFix"/>
<feBlend mode="normal" in="SourceGraphic" in2="BackgroundImageFix" result="shape"/>
<feColorMatrix in="SourceAlpha" type="matrix" values="0 0 0 0 0 0 0 0 0 0 0 0 0 0 0 0 0 0 127 0" result="hardAlpha"/>
<feOffset dy="4"/>
<feGaussianBlur stdDeviation="2"/>
<feComposite in2="hardAlpha" operator="arithmetic" k2="-1" k3="1"/>
<feColorMatrix type="matrix" values="0 0 0 0 0 0 0 0 0 0 0 0 0 0 0 0 0 0 0.25 0"/>
<feBlend mode="normal" in2="shape" result="effect1_innerShadow_20_723"/>
</filter>
<filter id="filter14_i_20_723" x="622.015" y="584.368" width="103.993" height="15.4279" filterUnits="userSpaceOnUse" color-interpolation-filters="sRGB">
<feFlood flood-opacity="0" result="BackgroundImageFix"/>
<feBlend mode="normal" in="SourceGraphic" in2="BackgroundImageFix" result="shape"/>
<feColorMatrix in="SourceAlpha" type="matrix" values="0 0 0 0 0 0 0 0 0 0 0 0 0 0 0 0 0 0 127 0" result="hardAlpha"/>
<feOffset dy="4"/>
<feGaussianBlur stdDeviation="2"/>
<feComposite in2="hardAlpha" operator="arithmetic" k2="-1" k3="1"/>
<feColorMatrix type="matrix" values="0 0 0 0 0 0 0 0 0 0 0 0 0 0 0 0 0 0 0.25 0"/>
<feBlend mode="normal" in2="shape" result="effect1_innerShadow_20_723"/>
</filter>
<filter id="filter15_d_20_723" x="699.724" y="383.237" width="265.698" height="348.55" filterUnits="userSpaceOnUse" color-interpolation-filters="sRGB">
<feFlood flood-opacity="0" result="BackgroundImageFix"/>
<feColorMatrix in="SourceAlpha" type="matrix" values="0 0 0 0 0 0 0 0 0 0 0 0 0 0 0 0 0 0 127 0" result="hardAlpha"/>
<feOffset dy="4"/>
<feGaussianBlur stdDeviation="2"/>
<feComposite in2="hardAlpha" operator="out"/>
<feColorMatrix type="matrix" values="0 0 0 0 0 0 0 0 0 0 0 0 0 0 0 0 0 0 0.25 0"/>
<feBlend mode="normal" in2="BackgroundImageFix" result="effect1_dropShadow_20_723"/>
<feBlend mode="normal" in="SourceGraphic" in2="effect1_dropShadow_20_723" result="shape"/>
</filter>
<filter id="filter16_d_20_723" x="957.422" y="383.237" width="243.414" height="348.55" filterUnits="userSpaceOnUse" color-interpolation-filters="sRGB">
<feFlood flood-opacity="0" result="BackgroundImageFix"/>
<feColorMatrix in="SourceAlpha" type="matrix" values="0 0 0 0 0 0 0 0 0 0 0 0 0 0 0 0 0 0 127 0" result="hardAlpha"/>
<feOffset dy="4"/>
<feGaussianBlur stdDeviation="2"/>
<feComposite in2="hardAlpha" operator="out"/>
<feColorMatrix type="matrix" values="0 0 0 0 0 0 0 0 0 0 0 0 0 0 0 0 0 0 0.25 0"/>
<feBlend mode="normal" in2="BackgroundImageFix" result="effect1_dropShadow_20_723"/>
<feBlend mode="normal" in="SourceGraphic" in2="effect1_dropShadow_20_723" result="shape"/>
</filter>
<filter id="filter17_i_20_723" x="1115.7" y="452.947" width="11.4279" height="274.84" filterUnits="userSpaceOnUse" color-interpolation-filters="sRGB">
<feFlood flood-opacity="0" result="BackgroundImageFix"/>
<feBlend mode="normal" in="SourceGraphic" in2="BackgroundImageFix" result="shape"/>
<feColorMatrix in="SourceAlpha" type="matrix" values="0 0 0 0 0 0 0 0 0 0 0 0 0 0 0 0 0 0 127 0" result="hardAlpha"/>
<feOffset dy="4"/>
<feGaussianBlur stdDeviation="2"/>
<feComposite in2="hardAlpha" operator="arithmetic" k2="-1" k3="1"/>
<feColorMatrix type="matrix" values="0 0 0 0 0 0 0 0 0 0 0 0 0 0 0 0 0 0 0.25 0"/>
<feBlend mode="normal" in2="shape" result="effect1_innerShadow_20_723"/>
</filter>
<filter id="filter18_i_20_723" x="1124.84" y="452.947" width="11.4279" height="274.84" filterUnits="userSpaceOnUse" color-interpolation-filters="sRGB">
<feFlood flood-opacity="0" result="BackgroundImageFix"/>
<feBlend mode="normal" in="SourceGraphic" in2="BackgroundImageFix" result="shape"/>
<feColorMatrix in="SourceAlpha" type="matrix" values="0 0 0 0 0 0 0 0 0 0 0 0 0 0 0 0 0 0 127 0" result="hardAlpha"/>
<feOffset dy="4"/>
<feGaussianBlur stdDeviation="2"/>
<feComposite in2="hardAlpha" operator="arithmetic" k2="-1" k3="1"/>
<feColorMatrix type="matrix" values="0 0 0 0 0 0 0 0 0 0 0 0 0 0 0 0 0 0 0.25 0"/>
<feBlend mode="normal" in2="shape" result="effect1_innerShadow_20_723"/>
</filter>
<filter id="filter19_i_20_723" x="1133.98" y="452.947" width="11.4279" height="274.84" filterUnits="userSpaceOnUse" color-interpolation-filters="sRGB">
<feFlood flood-opacity="0" result="BackgroundImageFix"/>
<feBlend mode="normal" in="SourceGraphic" in2="BackgroundImageFix" result="shape"/>
<feColorMatrix in="SourceAlpha" type="matrix" values="0 0 0 0 0 0 0 0 0 0 0 0 0 0 0 0 0 0 127 0" result="hardAlpha"/>
<feOffset dy="4"/>
<feGaussianBlur stdDeviation="2"/>
<feComposite in2="hardAlpha" operator="arithmetic" k2="-1" k3="1"/>
<feColorMatrix type="matrix" values="0 0 0 0 0 0 0 0 0 0 0 0 0 0 0 0 0 0 0.25 0"/>
<feBlend mode="normal" in2="shape" result="effect1_innerShadow_20_723"/>
</filter>
<filter id="filter20_i_20_723" x="1143.12" y="452.947" width="11.4279" height="274.84" filterUnits="userSpaceOnUse" color-interpolation-filters="sRGB">
<feFlood flood-opacity="0" result="BackgroundImageFix"/>
<feBlend mode="normal" in="SourceGraphic" in2="BackgroundImageFix" result="shape"/>
<feColorMatrix in="SourceAlpha" type="matrix" values="0 0 0 0 0 0 0 0 0 0 0 0 0 0 0 0 0 0 127 0" result="hardAlpha"/>
<feOffset dy="4"/>
<feGaussianBlur stdDeviation="2"/>
<feComposite in2="hardAlpha" operator="arithmetic" k2="-1" k3="1"/>
<feColorMatrix type="matrix" values="0 0 0 0 0 0 0 0 0 0 0 0 0 0 0 0 0 0 0.25 0"/>
<feBlend mode="normal" in2="shape" result="effect1_innerShadow_20_723"/>
</filter>
<filter id="filter21_i_20_723" x="1106.56" y="452.947" width="11.4279" height="274.84" filterUnits="userSpaceOnUse" color-interpolation-filters="sRGB">
<feFlood flood-opacity="0" result="BackgroundImageFix"/>
<feBlend mode="normal" in="SourceGraphic" in2="BackgroundImageFix" result="shape"/>
<feColorMatrix in="SourceAlpha" type="matrix" values="0 0 0 0 0 0 0 0 0 0 0 0 0 0 0 0 0 0 127 0" result="hardAlpha"/>
<feOffset dy="4"/>
<feGaussianBlur stdDeviation="2"/>
<feComposite in2="hardAlpha" operator="arithmetic" k2="-1" k3="1"/>
<feColorMatrix type="matrix" values="0 0 0 0 0 0 0 0 0 0 0 0 0 0 0 0 0 0 0.25 0"/>
<feBlend mode="normal" in2="shape" result="effect1_innerShadow_20_723"/>
</filter>
<filter id="filter22_i_20_723" x="1097.41" y="452.947" width="11.4279" height="274.84" filterUnits="userSpaceOnUse" color-interpolation-filters="sRGB">
<feFlood flood-opacity="0" result="BackgroundImageFix"/>
<feBlend mode="normal" in="SourceGraphic" in2="BackgroundImageFix" result="shape"/>
<feColorMatrix in="SourceAlpha" type="matrix" values="0 0 0 0 0 0 0 0 0 0 0 0 0 0 0 0 0 0 127 0" result="hardAlpha"/>
<feOffset dy="4"/>
<feGaussianBlur stdDeviation="2"/>
<feComposite in2="hardAlpha" operator="arithmetic" k2="-1" k3="1"/>
<feColorMatrix type="matrix" values="0 0 0 0 0 0 0 0 0 0 0 0 0 0 0 0 0 0 0.25 0"/>
<feBlend mode="normal" in2="shape" result="effect1_innerShadow_20_723"/>
</filter>
<filter id="filter23_i_20_723" x="1088.27" y="452.947" width="11.4279" height="274.84" filterUnits="userSpaceOnUse" color-interpolation-filters="sRGB">
<feFlood flood-opacity="0" result="BackgroundImageFix"/>
<feBlend mode="normal" in="SourceGraphic" in2="BackgroundImageFix" result="shape"/>
<feColorMatrix in="SourceAlpha" type="matrix" values="0 0 0 0 0 0 0 0 0 0 0 0 0 0 0 0 0 0 127 0" result="hardAlpha"/>
<feOffset dy="4"/>
<feGaussianBlur stdDeviation="2"/>
<feComposite in2="hardAlpha" operator="arithmetic" k2="-1" k3="1"/>
<feColorMatrix type="matrix" values="0 0 0 0 0 0 0 0 0 0 0 0 0 0 0 0 0 0 0.25 0"/>
<feBlend mode="normal" in2="shape" result="effect1_innerShadow_20_723"/>
</filter>
<filter id="filter24_i_20_723" x="1079.13" y="452.947" width="11.4279" height="274.84" filterUnits="userSpaceOnUse" color-interpolation-filters="sRGB">
<feFlood flood-opacity="0" result="BackgroundImageFix"/>
<feBlend mode="normal" in="SourceGraphic" in2="BackgroundImageFix" result="shape"/>
<feColorMatrix in="SourceAlpha" type="matrix" values="0 0 0 0 0 0 0 0 0 0 0 0 0 0 0 0 0 0 127 0" result="hardAlpha"/>
<feOffset dy="4"/>
<feGaussianBlur stdDeviation="2"/>
<feComposite in2="hardAlpha" operator="arithmetic" k2="-1" k3="1"/>
<feColorMatrix type="matrix" values="0 0 0 0 0 0 0 0 0 0 0 0 0 0 0 0 0 0 0.25 0"/>
<feBlend mode="normal" in2="shape" result="effect1_innerShadow_20_723"/>
</filter>
<filter id="filter25_i_20_723" x="1069.99" y="452.947" width="11.4279" height="274.84" filterUnits="userSpaceOnUse" color-interpolation-filters="sRGB">
<feFlood flood-opacity="0" result="BackgroundImageFix"/>
<feBlend mode="normal" in="SourceGraphic" in2="BackgroundImageFix" result="shape"/>
<feColorMatrix in="SourceAlpha" type="matrix" values="0 0 0 0 0 0 0 0 0 0 0 0 0 0 0 0 0 0 127 0" result="hardAlpha"/>
<feOffset dy="4"/>
<feGaussianBlur stdDeviation="2"/>
<feComposite in2="hardAlpha" operator="arithmetic" k2="-1" k3="1"/>
<feColorMatrix type="matrix" values="0 0 0 0 0 0 0 0 0 0 0 0 0 0 0 0 0 0 0.25 0"/>
<feBlend mode="normal" in2="shape" result="effect1_innerShadow_20_723"/>
</filter>
<filter id="filter26_i_20_723" x="1060.84" y="452.947" width="11.4279" height="274.84" filterUnits="userSpaceOnUse" color-interpolation-filters="sRGB">
<feFlood flood-opacity="0" result="BackgroundImageFix"/>
<feBlend mode="normal" in="SourceGraphic" in2="BackgroundImageFix" result="shape"/>
<feColorMatrix in="SourceAlpha" type="matrix" values="0 0 0 0 0 0 0 0 0 0 0 0 0 0 0 0 0 0 127 0" result="hardAlpha"/>
<feOffset dy="4"/>
<feGaussianBlur stdDeviation="2"/>
<feComposite in2="hardAlpha" operator="arithmetic" k2="-1" k3="1"/>
<feColorMatrix type="matrix" values="0 0 0 0 0 0 0 0 0 0 0 0 0 0 0 0 0 0 0.25 0"/>
<feBlend mode="normal" in2="shape" result="effect1_innerShadow_20_723"/>
</filter>
<filter id="filter27_i_20_723" x="1051.7" y="452.947" width="11.4279" height="274.84" filterUnits="userSpaceOnUse" color-interpolation-filters="sRGB">
<feFlood flood-opacity="0" result="BackgroundImageFix"/>
<feBlend mode="normal" in="SourceGraphic" in2="BackgroundImageFix" result="shape"/>
<feColorMatrix in="SourceAlpha" type="matrix" values="0 0 0 0 0 0 0 0 0 0 0 0 0 0 0 0 0 0 127 0" result="hardAlpha"/>
<feOffset dy="4"/>
<feGaussianBlur stdDeviation="2"/>
<feComposite in2="hardAlpha" operator="arithmetic" k2="-1" k3="1"/>
<feColorMatrix type="matrix" values="0 0 0 0 0 0 0 0 0 0 0 0 0 0 0 0 0 0 0.25 0"/>
<feBlend mode="normal" in2="shape" result="effect1_innerShadow_20_723"/>
</filter>
<filter id="filter28_i_20_723" x="1042.56" y="452.947" width="11.4279" height="274.84" filterUnits="userSpaceOnUse" color-interpolation-filters="sRGB">
<feFlood flood-opacity="0" result="BackgroundImageFix"/>
<feBlend mode="normal" in="SourceGraphic" in2="BackgroundImageFix" result="shape"/>
<feColorMatrix in="SourceAlpha" type="matrix" values="0 0 0 0 0 0 0 0 0 0 0 0 0 0 0 0 0 0 127 0" result="hardAlpha"/>
<feOffset dy="4"/>
<feGaussianBlur stdDeviation="2"/>
<feComposite in2="hardAlpha" operator="arithmetic" k2="-1" k3="1"/>
<feColorMatrix type="matrix" values="0 0 0 0 0 0 0 0 0 0 0 0 0 0 0 0 0 0 0.25 0"/>
<feBlend mode="normal" in2="shape" result="effect1_innerShadow_20_723"/>
</filter>
<filter id="filter29_i_20_723" x="1033.42" y="452.947" width="11.4279" height="274.84" filterUnits="userSpaceOnUse" color-interpolation-filters="sRGB">
<feFlood flood-opacity="0" result="BackgroundImageFix"/>
<feBlend mode="normal" in="SourceGraphic" in2="BackgroundImageFix" result="shape"/>
<feColorMatrix in="SourceAlpha" type="matrix" values="0 0 0 0 0 0 0 0 0 0 0 0 0 0 0 0 0 0 127 0" result="hardAlpha"/>
<feOffset dy="4"/>
<feGaussianBlur stdDeviation="2"/>
<feComposite in2="hardAlpha" operator="arithmetic" k2="-1" k3="1"/>
<feColorMatrix type="matrix" values="0 0 0 0 0 0 0 0 0 0 0 0 0 0 0 0 0 0 0.25 0"/>
<feBlend mode="normal" in2="shape" result="effect1_innerShadow_20_723"/>
</filter>
<filter id="filter30_i_20_723" x="1024.27" y="452.947" width="11.4279" height="274.84" filterUnits="userSpaceOnUse" color-interpolation-filters="sRGB">
<feFlood flood-opacity="0" result="BackgroundImageFix"/>
<feBlend mode="normal" in="SourceGraphic" in2="BackgroundImageFix" result="shape"/>
<feColorMatrix in="SourceAlpha" type="matrix" values="0 0 0 0 0 0 0 0 0 0 0 0 0 0 0 0 0 0 127 0" result="hardAlpha"/>
<feOffset dy="4"/>
<feGaussianBlur stdDeviation="2"/>
<feComposite in2="hardAlpha" operator="arithmetic" k2="-1" k3="1"/>
<feColorMatrix type="matrix" values="0 0 0 0 0 0 0 0 0 0 0 0 0 0 0 0 0 0 0.25 0"/>
<feBlend mode="normal" in2="shape" result="effect1_innerShadow_20_723"/>
</filter>
<filter id="filter31_i_20_723" x="1015.13" y="452.947" width="11.4279" height="274.84" filterUnits="userSpaceOnUse" color-interpolation-filters="sRGB">
<feFlood flood-opacity="0" result="BackgroundImageFix"/>
<feBlend mode="normal" in="SourceGraphic" in2="BackgroundImageFix" result="shape"/>
<feColorMatrix in="SourceAlpha" type="matrix" values="0 0 0 0 0 0 0 0 0 0 0 0 0 0 0 0 0 0 127 0" result="hardAlpha"/>
<feOffset dy="4"/>
<feGaussianBlur stdDeviation="2"/>
<feComposite in2="hardAlpha" operator="arithmetic" k2="-1" k3="1"/>
<feColorMatrix type="matrix" values="0 0 0 0 0 0 0 0 0 0 0 0 0 0 0 0 0 0 0.25 0"/>
<feBlend mode="normal" in2="shape" result="effect1_innerShadow_20_723"/>
</filter>
<filter id="filter32_i_20_723" x="1005.99" y="452.947" width="11.4279" height="274.84" filterUnits="userSpaceOnUse" color-interpolation-filters="sRGB">
<feFlood flood-opacity="0" result="BackgroundImageFix"/>
<feBlend mode="normal" in="SourceGraphic" in2="BackgroundImageFix" result="shape"/>
<feColorMatrix in="SourceAlpha" type="matrix" values="0 0 0 0 0 0 0 0 0 0 0 0 0 0 0 0 0 0 127 0" result="hardAlpha"/>
<feOffset dy="4"/>
<feGaussianBlur stdDeviation="2"/>
<feComposite in2="hardAlpha" operator="arithmetic" k2="-1" k3="1"/>
<feColorMatrix type="matrix" values="0 0 0 0 0 0 0 0 0 0 0 0 0 0 0 0 0 0 0.25 0"/>
<feBlend mode="normal" in2="shape" result="effect1_innerShadow_20_723"/>
</filter>
<filter id="filter33_i_20_723" x="996.848" y="452.947" width="11.4279" height="274.84" filterUnits="userSpaceOnUse" color-interpolation-filters="sRGB">
<feFlood flood-opacity="0" result="BackgroundImageFix"/>
<feBlend mode="normal" in="SourceGraphic" in2="BackgroundImageFix" result="shape"/>
<feColorMatrix in="SourceAlpha" type="matrix" values="0 0 0 0 0 0 0 0 0 0 0 0 0 0 0 0 0 0 127 0" result="hardAlpha"/>
<feOffset dy="4"/>
<feGaussianBlur stdDeviation="2"/>
<feComposite in2="hardAlpha" operator="arithmetic" k2="-1" k3="1"/>
<feColorMatrix type="matrix" values="0 0 0 0 0 0 0 0 0 0 0 0 0 0 0 0 0 0 0.25 0"/>
<feBlend mode="normal" in2="shape" result="effect1_innerShadow_20_723"/>
</filter>
<filter id="filter34_i_20_723" x="987.706" y="452.947" width="11.4279" height="274.84" filterUnits="userSpaceOnUse" color-interpolation-filters="sRGB">
<feFlood flood-opacity="0" result="BackgroundImageFix"/>
<feBlend mode="normal" in="SourceGraphic" in2="BackgroundImageFix" result="shape"/>
<feColorMatrix in="SourceAlpha" type="matrix" values="0 0 0 0 0 0 0 0 0 0 0 0 0 0 0 0 0 0 127 0" result="hardAlpha"/>
<feOffset dy="4"/>
<feGaussianBlur stdDeviation="2"/>
<feComposite in2="hardAlpha" operator="arithmetic" k2="-1" k3="1"/>
<feColorMatrix type="matrix" values="0 0 0 0 0 0 0 0 0 0 0 0 0 0 0 0 0 0 0.25 0"/>
<feBlend mode="normal" in2="shape" result="effect1_innerShadow_20_723"/>
</filter>
<filter id="filter35_i_20_723" x="1000.28" y="620.937" width="140.563" height="109.136" filterUnits="userSpaceOnUse" color-interpolation-filters="sRGB">
<feFlood flood-opacity="0" result="BackgroundImageFix"/>
<feBlend mode="normal" in="SourceGraphic" in2="BackgroundImageFix" result="shape"/>
<feColorMatrix in="SourceAlpha" type="matrix" values="0 0 0 0 0 0 0 0 0 0 0 0 0 0 0 0 0 0 127 0" result="hardAlpha"/>
<feOffset dy="4"/>
<feGaussianBlur stdDeviation="2"/>
<feComposite in2="hardAlpha" operator="arithmetic" k2="-1" k3="1"/>
<feColorMatrix type="matrix" values="0 0 0 0 0 0 0 0 0 0 0 0 0 0 0 0 0 0 0.25 0"/>
<feBlend mode="normal" in2="shape" result="effect1_innerShadow_20_723"/>
</filter>
<filter id="filter36_i_20_723" x="786.576" y="655.22" width="102.851" height="72.5671" filterUnits="userSpaceOnUse" color-interpolation-filters="sRGB">
<feFlood flood-opacity="0" result="BackgroundImageFix"/>
<feBlend mode="normal" in="SourceGraphic" in2="BackgroundImageFix" result="shape"/>
<feColorMatrix in="SourceAlpha" type="matrix" values="0 0 0 0 0 0 0 0 0 0 0 0 0 0 0 0 0 0 127 0" result="hardAlpha"/>
<feOffset dy="4"/>
<feGaussianBlur stdDeviation="2"/>
<feComposite in2="hardAlpha" operator="arithmetic" k2="-1" k3="1"/>
<feColorMatrix type="matrix" values="0 0 0 0 0 0 0 0 0 0 0 0 0 0 0 0 0 0 0.25 0"/>
<feBlend mode="normal" in2="shape" result="effect1_innerShadow_20_723"/>
</filter>
</defs>
</svg>
