<svg width="346" height="187" viewBox="0 0 346 187" fill="none" xmlns="http://www.w3.org/2000/svg">
<path d="M195.627 118.85L330.475 118.85V113.136L195.627 113.136V118.85Z" fill="#5FA0CB"/>
<path d="M188.77 113.136L323.618 113.136V107.422L188.77 107.422V113.136Z" fill="#5FA0CB"/>
<path d="M196.769 107.422L331.618 107.422V101.708L196.769 101.708V107.422Z" fill="#5FA0CB"/>
<path d="M210.483 101.708L345.331 101.708V95.994L210.483 95.994V101.708Z" fill="#5FA0CB"/>
<path d="M95.746 103.986H100.428V70.7437H95.746V103.986Z" fill="#3F3D56"/>
<path d="M95.7363 70.3223L97.4971 74.6605L270.753 4.3383L268.993 5.70092e-05L95.7363 70.3223Z" fill="#3F3D56"/>
<path d="M9.12989 153.614H49.8629V137.696H9.12989V153.614Z" fill="#3F3D56"/>
<path d="M12.8754 169.533L213.731 169.533V151.742L12.8754 151.742V169.533Z" fill="#3F3D56"/>
<path d="M45.8829 160.637H94.1073V100.006H58.0559L45.8829 130.586V160.637Z" fill="#E2E2E2"/>
<path d="M66.0156 124.352H86.6162V103.751H66.0156V124.352Z" fill="white"/>
<path d="M50.5649 124.586H63.675V103.986H58.0559L50.5649 124.586Z" fill="white"/>
<path d="M80.9979 144.953H85.6798V136.057H80.9979V144.953Z" fill="#3F3D56"/>
<path d="M59.695 125.991H59.4609C58.2813 125.991 57.1499 125.522 56.3158 124.688C55.4817 123.854 55.0131 122.723 55.0131 121.543C55.0131 120.363 55.4817 119.232 56.3158 118.398C57.1499 117.564 58.2813 117.095 59.4609 117.095H59.695V125.991Z" fill="#3F3D56"/>
<path d="M233.864 160.637H233.63C232.45 160.637 231.319 160.169 230.485 159.335C229.65 158.501 229.182 157.369 229.182 156.19C229.182 155.01 229.65 153.879 230.485 153.044C231.319 152.21 232.45 151.742 233.63 151.742H233.864V160.637Z" fill="#3F3D56"/>
<path d="M27.1554 151.675C23.6735 151.719 20.2465 152.548 17.1292 154.1C14.012 155.652 11.2847 157.886 9.15011 160.637H0L8.89573 135.858L50.331 127.686L49.1606 160.637H45.1607C43.0261 157.886 40.2988 155.652 37.1815 154.1C34.0642 152.548 30.6372 151.719 27.1554 151.675Z" fill="#E2E2E2"/>
<path d="M26.6872 186.856C37.9353 186.856 47.0537 177.738 47.0537 166.49C47.0537 155.242 37.9353 146.123 26.6872 146.123C15.4391 146.123 6.32071 155.242 6.32071 166.49C6.32071 177.738 15.4391 186.856 26.6872 186.856Z" fill="#3F3D56"/>
<path d="M26.6872 177.209C32.6072 177.209 37.4064 172.41 37.4064 166.49C37.4064 160.57 32.6072 155.771 26.6872 155.771C20.7671 155.771 15.968 160.57 15.968 166.49C15.968 172.41 20.7671 177.209 26.6872 177.209Z" fill="#E2E2E2"/>
<path d="M210.688 186.622C220.514 186.622 228.48 178.657 228.48 168.831C228.48 159.005 220.514 151.039 210.688 151.039C200.862 151.039 192.897 159.005 192.897 168.831C192.897 178.657 200.862 186.622 210.688 186.622Z" fill="#3F3D56"/>
<path d="M210.688 178.195C215.86 178.195 220.052 174.002 220.052 168.831C220.052 163.659 215.86 159.467 210.688 159.467C205.517 159.467 201.324 163.659 201.324 168.831C201.324 174.002 205.517 178.195 210.688 178.195Z" fill="#E2E2E2"/>
<path d="M92.7028 162.51H102.535L102.535 91.5786H92.7028L92.7028 162.51Z" fill="#3F3D56"/>
<path d="M92.7028 153.849L234.098 153.849V149.635L92.7028 149.635V153.849Z" fill="#3F3D56"/>
<path d="M56.8858 127.396H61.5678V125.523H56.8858V127.396Z" fill="#3F3D56"/>
<path d="M263.828 118.814C263.784 118.766 263.75 118.708 263.73 118.645C263.709 118.583 263.702 118.516 263.709 118.451L270.166 57.3892C270.178 57.2745 270.232 57.1684 270.318 57.091C270.404 57.0137 270.515 56.9706 270.63 56.9701H270.632C270.747 56.9701 270.858 57.0124 270.944 57.0889C271.029 57.1655 271.084 57.2708 271.097 57.385L278.081 118.32C278.088 118.385 278.082 118.451 278.062 118.514C278.043 118.576 278.01 118.634 277.966 118.683C277.923 118.732 277.87 118.772 277.81 118.799C277.75 118.826 277.686 118.841 277.62 118.841L264.179 118.968H264.175C264.11 118.968 264.045 118.954 263.985 118.928C263.926 118.901 263.872 118.863 263.828 118.814ZM270.651 61.7136L264.696 118.026L277.091 117.91L270.651 61.7136Z" fill="#3F3D56"/>
<path d="M8.98187 136.219L9.20083 136.302C10.3042 136.719 11.1966 137.557 11.6817 138.633C12.1668 139.708 12.2049 140.932 11.7876 142.035C11.3703 143.139 10.5318 144.031 9.45648 144.516C8.3812 145.001 7.15726 145.039 6.0539 144.622L5.83494 144.539L8.98187 136.219Z" fill="#3F3D56"/>
<path d="M268.51 68.4026H273.192V0.0459824H268.51V68.4026Z" fill="#3F3D56"/>
<path d="M98.0871 78.2349C101.707 78.2349 104.642 75.3003 104.642 71.6802C104.642 68.0601 101.707 65.1255 98.0871 65.1255C94.467 65.1255 91.5323 68.0601 91.5323 71.6802C91.5323 75.3003 94.467 78.2349 98.0871 78.2349Z" fill="#3F3D56"/>
<path d="M107.632 149.705L242.481 149.705V143.991L107.632 143.991V149.705Z" fill="#5FA0CB"/>
<path d="M115.632 143.991L250.48 143.991V138.277L115.632 138.277V143.991Z" fill="#5FA0CB"/>
<path d="M109.918 139.42L244.766 139.42V133.706L109.918 133.706V139.42Z" fill="#5FA0CB"/>
<path d="M117.917 133.706L252.766 133.706V127.992L117.917 127.992V133.706Z" fill="#5FA0CB"/>
</svg>
