<svg viewBox="0 0 25 32" fill="none" xmlns="http://www.w3.org/2000/svg" class="w-4"><path d="M7.57143 4.33333H4.28571C3.41429 4.33333 2.57855 4.68452 1.96236 5.30964C1.34617 5.93477 1 6.78261 1 7.66667V27.6667C1 28.5507 1.34617 29.3986 1.96236 30.0237C2.57855 30.6488 3.41429 31 4.28571 31H20.7143C21.5857 31 22.4214 30.6488 23.0376 30.0237C23.6538 29.3986 24 28.5507 24 27.6667V7.66667C24 6.78261 23.6538 5.93477 23.0376 5.30964C22.4214 4.68452 21.5857 4.33333 20.7143 4.33333H17.4286M7.57143 4.33333C7.57143 5.21739 7.9176 6.06523 8.53379 6.69036C9.14998 7.31548 9.98572 7.66667 10.8571 7.66667H14.1429C15.0143 7.66667 15.85 7.31548 16.4662 6.69036C17.0824 6.06523 17.4286 5.21739 17.4286 4.33333M7.57143 4.33333C7.57143 3.44928 7.9176 2.60143 8.53379 1.97631C9.14998 1.35119 9.98572 1 10.8571 1H14.1429C15.0143 1 15.85 1.35119 16.4662 1.97631C17.0824 2.60143 17.4286 3.44928 17.4286 4.33333M7.57143 19.3333L10.8571 22.6667L17.4286 16" stroke="#2C599D" stroke-width="2" stroke-linecap="round" stroke-linejoin="round"/></svg>